<?xml version="1.0" encoding="UTF-8"?>
<!-- Created with Inkscape (http://www.inkscape.org/) -->
<svg width="201.86mm" height="74.61mm" version="1.1" viewBox="0 0 201.86 74.61" xml:space="preserve" xmlns="http://www.w3.org/2000/svg"><g transform="translate(-5.6115 -9.3114)"><path d="m24.299 83.642c-0.50932-0.12526-1.602-0.35026-2.4283-0.5-25.483-4.6183-19.283-43.409 6.5882-41.222 2.2457 0.18983 2.3479 0.0334 0.73483-1.125-1.4949-1.0736-1.6863-2.2193-0.57239-3.4272 1.0239-1.1103 2.8629-0.70622 4.4746 0.98324 1.5605 1.6358 2.2088 1.7183 4.0291 0.51261 1.5463-1.0242 3.6498-1.1972 4.2686-0.35091 1.508 2.0623-0.10127 4.6253-2.9129 4.6392-1.4065 7e-3 -1.694 0.44276-0.43265 0.65587 3.525 0.59556 7.5279 4.2358 6.9946 6.3608-0.51768 2.0626-3.1318 2.2859-4.5364 0.38758-2.0676-2.7944-3.7074-3.6772-7.2522-3.9041-6.4784-0.4148-13.62 4.5514-15.52 10.792-4.5746 15.027 6.3098 26.284 19.844 20.522 2.9926-1.274 3.6881 1.1128 0.94171 3.2317-2.541 1.9604-10.574 3.341-14.221 2.4441zm70.357-0.12218c-0.0606-0.0603-0.64602-0.16256-1.3009-0.22713-1.1575-0.11415-1.5301-0.21316-2.9104-0.77333-3.5264-1.4312-4.5524-3.3573-2.7489-5.1608 1.3806-1.3806 5.4564-0.30759 6.7287 1.7714 0.89006 1.4544 2.4744 1.9408 5.2841 1.6223 5.2874-0.59936 7.2467-3.223 10.684-14.307 1.1998-3.8692 1.2459-4.247 0.51868-4.247-2.649 0-6.1714-3.6361-6.1773-6.3767-0.01-4.6318 6.9743-6.5087 7.3502-1.9753 0.12497 1.5069-0.70455 3.0508-1.6465 3.0643-1.2718 0.0183-0.91271 1.5509 0.52302 2.2322 1.4141 0.67104 1.538 0.57001 2.3363-1.9055 0.63902-1.9816 1.8495-4.6498 3.7187-8.1968 0.24771-0.47005 0.56923-0.9281 0.71452-1.0179 0.14528-0.0898 0.36946-0.44026 0.49818-0.77882 0.3006-0.79062 4.7122-4.6411 6.6186-5.7767 3.712-2.2112 10.141-3.4956 12.997-2.5966 0.48807 0.15362 1.4002 0.41146 2.0269 0.573 3.4707 0.89458 5.4617 5.4552 4.1257 9.4502-1.4607 4.3677-3.6448 6.6239-8.9693 9.2657-0.7276 0.361-1.3675 0.69802-1.422 0.74894-0.25866 0.24172-2.2004 7.019-2.345 8.1847-0.3539 2.8533-0.33709 2.9075 0.91143 2.9348 4.8463 0.10616 0.23306 5.935-5.5379 6.9972-4.9861 0.91771-5.5388-1.3704-2.7183-11.255 0.24914-0.87313 0.54943-1.9865 0.6673-2.4742l0.21432-0.88666-1.2349 0.18324c-0.67922 0.10077-1.354 0.20212-1.4995 0.2252-0.42944 0.0681-0.61331 0.45203-1.3506 2.8201-1.1648 3.741-2.5459 6.9797-3.6669 8.599-0.30222 0.43656-0.72566 1.146-0.94098 1.5765-1.3886 2.7764-5.4518 5.6-9.6519 6.7073-3.2968 0.86914-11.25 1.5428-11.796 0.99919zm22.247-14.575c0-0.0728-0.0595-0.13229-0.13229-0.13229-0.0728 0-0.13229 0.0595-0.13229 0.13229 0 0.0728 0.0595 0.13229 0.13229 0.13229 0.0728 0 0.13229-0.0595 0.13229-0.13229zm12.435-2.3813c0-0.0728-0.0595-0.13229-0.13229-0.13229-0.0728 0-0.1323 0.0595-0.1323 0.13229 0 0.0728 0.0595 0.13229 0.1323 0.13229s0.13229-0.0595 0.13229-0.13229zm-4.3626-7.128c0.7182-0.30008 0.92392-0.63471 1.5749-2.5617 2.4129-7.1427 5.831-11.423 9.6033-12.027 2.7362-0.43753 4.368 1.4292 2.4459 2.7979-1.8852 1.3424-4.5393 8.0865-2.8203 7.1665 6.4794-3.4677 6.7583-12.741 0.38239-12.718-5.9113 0.0215-9.6419 4.0912-12.123 13.225-0.29648 1.0914-0.71365 2.4333-0.92704 2.9819-0.74788 1.9229-0.45245 2.1028 1.864 1.1349zm-93.93 16.93c-13.062-3.3553-8.0509-23.957 5.8268-23.957 11.93 0 9.8388 16.095-2.321 17.868-1.371 0.19996-1.4949 0.35488-0.7925 0.99054 0.72352 0.65478 2.9068 0.82989 4.2653 0.34211 3.1344-1.1254 4.3465 0.33679 2.1817 2.6318-1.9714 2.0901-5.8191 2.9822-9.1603 2.1239zm5.2788-10.679c2.6936-1.4516 4.643-4.2064 4.643-6.561 0-4.665-4.8829-2.8462-7.7916 2.9024-2.2528 4.4523-1.0081 5.8987 3.1486 3.6586zm12.977 10.812c-4.4737-1.1157-7.3854-5.3414-5.1314-7.4469 1.7168-1.6037 4.4699-0.3603 4.4699 2.0187 0 1.8943 1.5933 2.6977 2.9766 1.501 0.97751-0.84566-0.11116-3.3891-1.9727-4.6089-7.6248-4.996-1.3114-16.259 7.7012-13.738 3.7959 1.0615 6.0077 4.5666 4.0911 6.4832-1.4619 1.4619-4.3295 0.7086-4.3295-1.1373 0-2.4964-2.6173-3.3612-3.4653-1.145-0.55916 1.4614 0.04922 2.5548 3.6924 6.6365 5.1793 5.8027-0.15717 13.401-8.0324 11.437zm93.004-0.0717c-5.4101-0.81627-7.8687-5.1843-6.3584-11.297 1.8893-7.6463 9.3128-13.083 15.208-11.137 0.92261 0.30449 1.0281 0.28008 1.741-0.40293 1.795-1.7197 4.3837-1.1102 5.204 1.2252 0.37506 1.0678 0.67599 1.4538 1.4374 1.8439 2.3124 1.1847 0.94644 4.7402-1.8229 4.7448-0.46937 8e-4 -0.59531 0.15135-0.59531 0.71172 0 7.4263-8.1649 15.314-14.814 14.311zm5.896-6.7968c2.1534-0.92304 4.253-3.6179 5.1067-6.5543l0.4129-1.4203-1.3277-1.1937c-0.98523-0.8858-1.3489-1.4129-1.4099-2.0435-0.16201-1.6758-3.0987-0.84416-4.9882 1.4126-4.6752 5.584-3.2041 12.118 2.2062 9.7993zm-88.112 6.5616c-1.0878-0.31431-1.5565-1.0944-0.95675-1.5921 1.0991-0.91214 1.7173-2.4967 2.7473-7.0412 1.9006-8.3855 2.1551-9.4434 2.5607-10.644 1.0901-3.2262 3.0811-6.5852 5.2044-8.7807 3.729-3.8558 13.652-3.2039 12.721 0.83564-0.37825 1.64-3.0297 1.8138-4.7417 0.31073-1.7903-1.5719-3.5384-0.10953-4.6081 3.8549-0.82266 3.0488-0.79117 3.173 0.56104 2.2115 1.8029-1.2819 5.4617-1.7915 7.0246-0.97827 4.3312 2.2535 2.7065 9.1119-2.8223 11.914-0.74693 0.3785-1.3576 0.71594-1.3569 0.74987 5.29e-4 0.0339 0.29826 0.64741 0.66146 1.3633 0.36319 0.71588 0.66035 1.749 0.66035 2.2957 0 1.1437 0.3977 1.3462 1.8163 0.92514 1.5794-0.46884 2.2232 1.3916 0.97301 2.8117-2.9325 3.331-7.4665 2.1214-8.7628-2.3379-0.87312-3.0034-2.5102-3.7256-3.3767-1.4896-0.82828 2.1374-1.0636 2.5281-2.2915 3.8036-1.666 1.7307-3.9061 2.3967-6.0132 1.7879zm13.797-12.242c2.6753-2.1922 2.6669-5.4552-0.01401-5.4552-1.7805 0-3.8016 3.7257-3.8016 7.0079 0 0.59536 2.3722-0.36999 3.8156-1.5527zm16.387 12.21c-0.07184-0.11623-0.21234-0.16082-0.31223-0.0991-0.09989 0.0617-0.83123-6e-3 -1.6252-0.15013-10.192-1.8525-6.2465-19.692 4.8842-22.083 4.3661-0.93777 7.9895 0.1078 8.9836 2.5924 2.0739 5.1832-1.9456 11.076-8.8204 12.931-2.3884 0.64447-2.6925 1.0768-1.4181 2.0161 1.2262 0.90383 2.8229 0.96291 5.1686 0.19124 2.7829-0.91551 3.5143-0.23016 2.0942 1.9625-1.0647 1.6441-8.2592 3.7645-8.9547 2.6392zm1.9093-9.9067c3.6525-1.2426 6.0278-3.7242 6.3756-6.6608 0.70781-5.9763-6.2906-1.2321-7.8233 5.3033-0.485 2.0681-0.52659 2.0291 1.4476 1.3575zm96.289 9.6872c-4.8674-1.433-6.7088-7.6667-4.0591-13.742 2.9096-6.6705 7.4883-9.3697 12.963-7.6418l1.7751 0.56022 0.78954-0.5622c2.4699-1.7587 5.8617-0.33623 5.8617 2.4583 0 0.39961 0.14905 0.68762 0.35587 0.68762 0.51314 0 1.1414 0.80808 1.295 1.6656 0.24849 1.3877-2.0222 3.6094-3.7014 3.6217-0.32742 2e-3 -0.59738 0.0937-0.59991 0.20279-0.17632 7.616-8.2624 14.639-14.68 12.749zm5.9975-5.8119c2.4757-0.68763 5.9534-8.0436 4.237-8.9622-0.26626-0.1425-0.62741-0.73736-0.80255-1.3219-0.38849-1.2967-0.4975-1.3708-1.7232-1.1719-2.9882 0.48492-6.1274 6.396-5.1426 9.6832 0.49433 1.6499 1.6759 2.2604 3.4313 1.7728zm-29.66 5.5109c-1.7852-0.30475-2.959-1.0537-4.2515-2.7129l-1.1906-1.5283v-2.2909c0-2.1144 2.3757-8.3478 3.5406-9.2896 0.55983-0.45265 0.26704-1.7414-0.4931-2.1705-1.0806-0.60994-1.1663-2.6641-0.15994-3.834l0.63855-0.74236 3.9255-0.0311c6.7351-0.0534 7.0926 0.64804 3.3198 6.5134-2.9818 4.6356-3.2887 8.1314-0.82574 9.405 2.056 1.0632 5.7126-1.7489 6.7246-5.1717 0.10756-0.3638 0.28659-0.78052 0.39785-0.92604 0.55615-0.72743 0.56582-2.4821 0.0178-3.2243-0.74031-1.0026-0.81762-3.4707-0.14106-4.5033 1.6776-2.5603 5.0045-2.5346 6.2594 0.0485 0.3542 0.72906 0.79146 1.2186 1.1743 1.3147 3.2175 0.80754 1.3991 4.9371-2.3813 5.4079l-1.3066 0.16273-0.44487 1.5875c-2.2233 7.9337-8.5469 13.053-14.804 11.985zm-0.54736-18.864c0-0.0728-0.0595-0.1323-0.13229-0.1323-0.0728 0-0.1323 0.0595-0.1323 0.1323s0.0595 0.13229 0.1323 0.13229 0.13229-0.0595 0.13229-0.13229zm-70.445-4.1034c-0.85133-0.53048-0.56111-1.6312 0.80879-3.0674 0.89353-0.93682 1.4124-1.7804 1.7445-2.8362 0.91236-2.9007 4.6564-3.6132 6.3418-1.2068 2.3626 3.3731-5.1961 9.4154-8.8951 7.1105zm-40.035-17.963c-4.4427-1.1174-5.7384-4.426-3.7143-9.4851 0.9809-2.4517 1.1502-3.3525 0.6842-3.6405-2.9388-1.8163-0.49458-4.6198 3.4434-3.9496 1.0914 0.18578 2.33 0.29411 2.7525 0.24075 2.6414-0.33366 2.8012 1.1558 0.54342 5.0633-2.9802 5.1578-3.0358 7.8962-0.16023 7.8962 2.5072 0 5.5119-6.3251 3.7585-7.9119-1.1673-1.0564-0.86937-3.6586 0.53318-4.6573 1.7093-1.2172 4.5544-0.79596 4.8885 0.7237 0.28422 1.2927 0.37459 1.4535 0.89303 1.5891 0.27839 0.0728 0.64852 0.47604 0.8225 0.89607l0.31634 0.76371 1.2252-1.3627c2.6607-2.9594 5.6533-3.9366 8.8325-2.8844 0.87179 0.28852 1.0768 0.26727 1.7198-0.17826 2.2287-1.5443 5.2715-0.26545 5.044 2.1199-0.07702 0.80766 0.02146 1.2267 0.37023 1.5754 0.64747 0.64747 0.67492 0.63024 1.0345-0.64932 1.9405-6.905 4.3001-9.7234 8.1405-9.7234 2.6881 0 3.3327 1.2906 1.2532 2.5092-2.294 1.3444-4.1719 5.3542-1.9741 4.2152 2.485-1.2878 4.7944-0.74093 6.6189 1.5672l1.079 1.365-0.1602 1.8952c-0.63822 7.5501-7.0562 12.625-13.861 10.96-3.0613-0.74872-3.9296-3.7688-2.3889-8.3084 0.58499-1.7236 0.54406-1.8993-0.3567-1.5306-0.34623 0.14171-1.06 0.32716-1.5862 0.41212-0.91892 0.14837-0.9684 0.21257-1.2519 1.6244-0.63618 3.1678-2.682 6.0242-5.1896 7.2458-6.068 2.9561-11.273-1.3252-9.5738-7.875 0.19697-0.75932 0.32378-1.3806 0.28181-1.3806-0.04197 0-0.41148 0.12759-0.82114 0.28353-0.40966 0.15595-1.1585 0.31013-1.664 0.34265-0.90548 0.0582-0.92765 0.0886-1.4855 2.0357-1.7104 5.9704-5.7696 9.2882-10.047 8.2124zm40.051-5.2633c1.9849-2.2835 3.185-8.0784 1.739-8.3973-0.4195-0.0925-0.90386-0.21114-1.0764-0.26358-0.56875-0.17287-1.9994 1.0486-2.3326 1.9916-2.2044 6.2375-1.254 10.033 1.67 6.6693zm-16.672-0.42794c2.0797-1.0865 3.8861-4.641 2.7585-5.4281-0.5486-0.38291-1.3826-1.8862-1.3826-2.4921 0-1.6456-2.7954-0.58184-3.863 1.47-2.1244 4.0832-0.5916 8.0586 2.4871 6.4502zm-56.253 5.4086c-6.715-1.0462-8.9704-9.2112-4.6466-16.822 3.4249-6.0283 7.1098-8.322 12.081-7.5201 1.8716 0.30193 2.0461 0.28818 2.7556-0.21703 1.749-1.2454 5.1052-0.12919 5.1052 1.6978 0 0.23956 0.3193 0.36318 0.93807 0.36318 0.64615 0 1.1425 0.20447 1.5951 0.65706l0.65706 0.65705-0.52941 1.0377c-0.63038 1.2356-1.4924 1.9592-3.0368 2.549l-1.1392 0.43504-0.15265 1.6346c-0.9456 10.126-6.6413 16.616-13.628 15.527zm6.5869-7.6957c2.2719-1.4579 3.6262-3.9909 4.3317-8.1021 0.13964-0.81369-0.3352-1.6729-0.92452-1.6729-0.6006 0-2.0602-1.6522-2.2222-2.5154-0.72399-3.8592-6.5799 2.9159-7.2052 8.3362-0.44479 3.8556 2.826 6.0039 6.0202 3.9542zm10.416 7.4087c-1.0519-0.20075-2.7194-1.0239-3.6209-1.7874-0.92295-0.78164-0.82396-2.8907 0.16672-3.5522 1.0931-0.72991 3.3338 0.22614 3.3338 1.4224 0 1.5634 1.3636 2.4873 2.6275 1.7803 1.4922-0.83467 1.0491-1.8439-1.5692-3.5744-3.1436-2.0777-3.4396-2.4962-3.4396-4.8627 0-5.9066 9.6094-9.2956 12.365-4.3608 1.1305 2.0246 0.58824 3.8365-1.1482 3.8365-1.1336 0-1.9081-0.65782-2.1115-1.7935-0.31204-1.742-1.6111-2.4877-2.604-1.4948-0.98182 0.98181-0.24067 2.7182 1.6391 3.8402 4.1711 2.4896 4.954 6.4168 1.8266 9.1628-1.3974 1.227-4.8924 1.8748-7.4653 1.3837zm67.942-0.87165c-3.9818-1.0774-5.1281-5.6856-2.7407-11.018 1.6271-3.6343 6.1961-5.8166 9.9672-4.7608 1.0331 0.28925 1.249 0.27623 1.6653-0.10048 1.4411-1.3042 5.0568 0.28511 5.0651 2.2264 2e-3 0.50697 0.60234 1.8338 0.83079 1.8366 0.25833 3e-3 0.48627-1.0694 0.49026-2.3069 5e-3 -1.4471 0.81767-2.0733 2.3694-1.8252 2.2665 0.36242 7.1268 0.47417 9.0108 0.20718 3.971-0.56275 4.4499 1.0414 1.3036 4.3673-0.66572 0.70375-2.0236 2.2916-3.0174 3.5285-0.99384 1.2369-1.8807 2.3085-1.9707 2.3812-0.43092 0.34822-1.0817 1.6312-0.94208 1.8572 0.24224 0.39196 1.8707-0.39246 3.3013-1.5902 2.2521-1.8856 3.1525-1.3386 2.6116 1.5866-0.50594 2.7356-0.56502 2.7676-5.2169 2.8218-2.1307 0.0248-4.2908 0.10607-4.8001 0.18056-3.7545 0.5491-5.535-0.22995-4.8519-2.1229 0.30787-0.85316 5.0967-6.3751 6.8977-7.9537 2.2122-1.9389 1.5477-2.3118-1.129-0.63351-2.0258 1.2702-3.2928 1.5883-3.9016 0.9795-0.38413-0.38413-0.52797-0.36318-1.6676 0.24277-0.68598 0.36474-1.4596 0.66316-1.7192 0.66316-0.50081 0-0.54704 0.10553-1.0433 2.3812-1.1413 5.2339-5.7659 8.336-10.512 7.0516zm5.7957-4.5162c2.435-1.0174 3.572-4.3175 1.9718-5.7225-0.74261-0.65202-0.95262-1.0345-0.95262-1.735 0-1.8684-2.4542-0.72355-3.5884 1.674-1.8811 3.9764-0.50729 7.0691 2.5692 5.7836zm28.26 4.2474c-8.7674-2.0156-4.7766-15.787 4.7144-16.269 8.7643-0.44447 7.1513 10.381-1.7117 11.488-1.467 0.1833-1.6708 0.44214-1.0339 1.3132 0.57072 0.78051 2.5331 0.59262 4.3153-0.41315 1.7504-0.98785 2.4584-0.88033 2.4584 0.37334 0 2.3855-4.9622 4.3762-8.7424 3.5071zm4.1869-7.4571c2.7248-1.1351 4.5099-4.1643 3.1828-5.4007-1.6517-1.5388-3.6429-0.0961-4.9399 3.5792-0.85617 2.426-0.523 2.7714 1.7572 1.8215zm29.2 6.873c-8.7021-2.3411-4.1877-16.141 5.327-16.284 8.2018-0.12304 6.4682 10.21-1.9012 11.333-1.3753 0.18447-1.5534 0.45773-0.6737 1.0341 1.0649 0.69774 2.8039 0.58453 4.0895-0.26622 1.3611-0.90073 2.1158-0.74919 2.1158 0.42484 0 2.4531-5.3951 4.7169-8.9573 3.7586zm4.9395-8.0786c3.4886-1.5674 4.4117-6.2823 1.0656-5.4425-1.9344 0.48551-5.1661 4.9367-4.2496 5.8532 0.32951 0.3295 2.0226 0.11112 3.184-0.41068zm-16.785 8.0475c-0.30934-0.0607-0.83689-0.4025-1.1723-0.75957l-0.60991-0.64922 1.2366-4.033c1.8014-5.875 1.5934-7.2468-0.8367-5.5165-1.2347 0.87919-3.01 7.0977-2.4602 8.6179 0.6459 1.7862 0.18201 2.0207-4.0246 2.0342-4.0618 0.013-5.7886-1.1959-3.2334-2.2635 0.74711-0.31217 1.7353-1.4191 1.5039-1.6846-0.0341-0.0392 0.13711-0.75353 0.3805-1.5875 0.24339-0.83398 0.65457-2.3211 0.91374-3.3047l0.47121-1.7883-1.0949-0.73388c-1.9534-1.3094-1.3987-2.4965 1.3713-2.9344 0.73358-0.11596 1.6313-0.40577 1.9949-0.64402 1.5951-1.0452 3.8734-0.72018 3.8734 0.55253 0 0.27298 0.17509 0.33876 0.59531 0.22363 7.8373-2.1471 9.5153-0.34966 6.8144 7.2996-1.1844 3.3544-1.2582 3.8604-0.59664 4.095 3.6202 1.2838-0.78605 3.928-5.1265 3.0764zm16.398-17c-0.65587-0.2808-0.75152-0.41653-0.98644-1.3997-0.15254-0.63841-0.0674-0.76645 0.73167-1.1003 0.52048-0.21747 0.98601-0.64077 1.0968-0.99731 0.75599-2.4328 5.2976-3.6114 5.4521-1.4149 0.23327 3.3162-3.3997 6.1516-6.2941 4.9123z" stroke-width=".26458"/><g fill="#a23c2e" stroke-width=".22247"><path d="m19.558 33.938c-3.4136-1.2808-5.2979-4.2901-5.2909-8.45 0.0018-1.0745 0.15272-2.5875 0.33536-3.3622 0.71074-3.0149 3.0131-6.9512 5.3624-9.1682 2.6008-2.4542 4.2242-3.0169 8.0287-2.7826 2.3202 0.14288 2.6053 0.11621 3.527-0.32997 0.79073-0.38278 1.2146-0.45365 2.0047-0.33516 1.1131 0.16692 2.5405 1.234 2.5405 1.8992 0 0.43969 0.42342 0.66816 1.2383 0.66816 0.29396 0 0.85438 0.28585 1.2454 0.63521l0.71092 0.63521-0.59704 1.0188c-0.68327 1.1659-1.4015 1.7375-2.9451 2.3438l-1.0865 0.42679-0.26974 2.1478c-0.87294 6.9509-3.7791 12.124-7.9561 14.164-1.3705 0.66906-1.774 0.75886-3.6707 0.81686-1.617 0.04945-2.3834-0.02952-3.1772-0.32737zm7.6211-6.8503c1.8939-0.97935 3.5674-3.5006 4.3418-6.5412 0.53444-2.0984 0.51085-2.9032-0.09764-3.3308-1.416-0.99499-2.153-1.7984-2.6215-2.8578-0.56517-1.278-0.93134-1.4284-2.0582-0.84568-1.6465 0.85143-4.169 4.6053-5.0052 7.4485-0.91228 3.1017 0.04362 5.9388 2.203 6.5384 0.7272 0.20194 2.4831-0.02122 3.2378-0.41151z"/><path d="m36.919 33.675c-1.1193-0.43773-2.3535-1.2152-2.8-1.7639-0.38807-0.47689-0.34735-2.061 0.06823-2.6543 0.44114-0.62982 1.709-0.66386 2.6797-0.07194 0.50956 0.31072 0.72554 0.63901 0.82545 1.2546 0.27781 1.7119 1.8488 2.4261 3.1263 1.4213 1.1212-0.88192 0.60876-1.7816-2.093-3.6748-0.9542-0.66863-2.0432-1.5668-2.42-1.9959-0.62845-0.71576-0.68504-0.91163-0.68504-2.3708 0-1.9839 0.48864-3.0746 2.0187-4.5057 2.0354-1.9039 4.9764-2.7563 7.3212-2.1219 2.9575 0.80012 4.4887 5.13 2.0069 5.6751-1.1012 0.24187-1.8693-0.35266-2.4252-1.8771-0.26972-0.73975-0.67896-1.4459-0.90942-1.5692-1.6183-0.86608-2.9097 1.0734-1.8176 2.7297 0.22413 0.3399 1.0035 1.0517 1.7319 1.5817 3.2038 2.3312 4.2781 4.6415 3.2185 6.9215-0.62692 1.3491-1.9325 2.4572-3.5185 2.9866-1.8103 0.60417-4.8303 0.62093-6.3283 0.03511z"/><path d="m53.185 34.376c-1.6506-0.62912-2.6258-1.3622-3.2665-2.4555-0.93078-1.5883-0.83913-3.3976 0.34809-6.8712 0.50979-1.4916 0.9269-2.8027 0.9269-2.9136 0-0.1109-0.35039-0.56241-0.77864-1.0034-0.92497-0.95242-1.0028-1.7323-0.24804-2.487 0.86236-0.86236 2.152-1.0915 4.5887-0.81527 1.1638 0.13193 2.3399 0.1813 2.6136 0.10973 0.63641-0.16642 1.6108 0.45936 1.6108 1.0345 0 0.6061-0.56745 1.9615-1.703 4.0677-2.0378 3.7798-2.589 6.1535-1.6874 7.2669 0.60676 0.74931 1.9841 0.84036 2.9361 0.19409 2.4371-1.6545 3.9351-5.9888 2.6392-7.6363-0.70318-0.89395-0.7954-2.6641-0.18911-3.6302 0.60747-0.96795 2.2032-1.6899 3.3847-1.5315 1.2895 0.17296 1.8652 0.65294 2.1528 1.7949 0.16896 0.67101 0.39947 1.0473 0.69993 1.1427 0.2464 0.0782 0.6098 0.46045 0.80756 0.84945 0.19776 0.38899 0.39453 0.74662 0.43728 0.79474 0.04275 0.04811 0.77959-0.63129 1.6374-1.5098 2.5912-2.6536 4.9677-3.507 7.8293-2.8115l1.5677 0.38102 1.3315-0.59753c1.6534-0.74198 2.5992-0.62824 3.6686 0.44115 0.63682 0.63682 0.73885 0.89017 0.73885 1.8347 0 0.88076 0.10898 1.1982 0.55529 1.6175 0.30541 0.28692 0.59845 0.47852 0.65118 0.42578 0.05274-0.05274 0.4156-1.096 0.80635-2.3183 0.80406-2.5151 1.9535-4.9342 2.9375-6.1825 1.3957-1.7704 4.1751-2.7419 6.0588-2.1179 1.0921 0.3618 1.2432 0.90538 0.43783 1.575-1.9152 1.5923-2.5994 2.3385-3.1202 3.4031-0.3196 0.65325-0.51596 1.2931-0.43636 1.4219 0.21083 0.34114 0.92853 0.2869 1.7372-0.13129 1.8252-0.94387 4.1737-0.19305 5.9199 1.8926 1.0525 1.2571 1.1388 1.9409 0.57889 4.5844-0.52655 2.4857-1.6634 4.6104-3.3914 6.3384-2.4264 2.4264-5.2793 3.5307-8.396 3.2498-2.8075-0.25297-4.1358-1.2662-4.6051-3.5128-0.24772-1.1858-0.03321-2.7447 0.74996-5.4503 0.14942-0.51616 0.2052-1.0049 0.12396-1.0862-0.20616-0.20616-2.8503 0.40571-3.1806 0.73601-0.14903 0.14904-0.39372 0.80029-0.54373 1.4472-1.0266 4.427-4.3686 7.6337-8.2449 7.911-3.4516 0.24696-5.7751-1.5806-6.4353-5.0617-0.19067-1.0054-0.14747-1.5185 0.36846-4.3757l0.12646-0.70035-1.1934 0.30236c-0.65636 0.1663-1.4604 0.35615-1.7868 0.42189-0.51862 0.10447-0.66928 0.35086-1.1956 1.9553-1.2601 3.8414-3.1458 6.4557-5.5291 7.6654-1.4712 0.74676-3.5965 0.89022-5.0397 0.34017zm40.167-4.3094c1.0156-0.89172 1.7278-2.126 2.3572-4.0852 0.55032-1.713 0.70269-4.3667 0.27537-4.7959-0.1423-0.14294-0.70324-0.31-1.2465-0.37124-0.90464-0.10196-1.0552-0.04391-1.7888 0.6897-1.6012 1.6012-2.7377 7.6903-1.6745 8.9714 0.40516 0.48819 1.2435 0.3232 2.0772-0.40879zm-15.795-1.2082c1.0617-0.72051 1.5368-1.2729 2.2289-2.5914 0.74102-1.4118 0.71252-2.2672-0.10661-3.2001-0.36156-0.41179-0.77961-1.1567-0.92902-1.6554-0.35942-1.1996-0.81922-1.4274-1.96-0.97097-1.1632 0.46543-2.0763 1.5241-2.6599 3.084-0.80332 2.147-0.51417 5.0242 0.56814 5.6534 0.7311 0.42498 1.9647 0.28714 2.8585-0.3194z"/><path d="m106.23 33.237c-3.8279-0.98731-5.2303-5.0504-3.4165-9.8982 0.94504-2.5258 2.3805-4.0764 4.7984-5.1834 1.5086-0.69067 3.9752-0.93299 5.5249-0.54277 0.88304 0.22235 1.109 0.19856 1.8411-0.19379 1.0897-0.58404 1.5193-0.56462 2.917 0.13189 1.1444 0.5703 1.8163 1.4004 1.8181 2.2463 1e-3 0.62163 0.88282 1.9416 1.131 1.6935 0.11678-0.11678 0.27626-0.89695 0.3544-1.7337 0.21582-2.3112 0.35203-2.3916 3.6921-2.1794 2.8353 0.18015 4.7441 0.20022 7.9739 0.08386 3.7539-0.13524 3.8163 0.79286 0.32012 4.7608-4.083 4.6339-5.7942 6.9736-5.3935 7.3743 0.29906 0.29906 1.8539-0.38646 3.2671-1.4404 1.7343-1.2934 2.1079-1.4483 2.4627-1.0208 0.40715 0.49058 0.11352 3.373-0.41583 4.082-0.54961 0.73615-1.0561 0.85612-3.7265 0.8826-1.2297 0.0122-3.5516 0.12768-5.1597 0.25664-3.3045 0.26498-4.5115 0.08179-5.0692-0.76934-0.24993-0.38144-0.28322-0.66417-0.12669-1.0759 0.29315-0.77104 3.1843-4.2057 5.9486-7.0669 1.2676-1.312 2.3047-2.5101 2.3047-2.6622 0-0.42547-1.0144-0.09451-2.7279 0.89-2.0039 1.1514-2.8042 1.362-3.597 0.94657-0.56997-0.29864-0.72189-0.27858-1.9025 0.25126-0.7057 0.3167-1.4479 0.57582-1.6494 0.57582-0.4311 0-0.66276 0.4916-1.1457 2.4313-1.0618 4.2642-4.1268 7.0927-7.8773 7.2695-0.80079 0.03774-1.7665-0.01148-2.1461-0.10937zm5.077-4.2619c1.778-0.49381 3.0659-2.2526 3.0659-4.1872 0-0.9315-0.11937-1.243-0.77864-2.0321-0.42825-0.51258-0.77864-1.1145-0.77864-1.3377 0-1.4243-1.1228-1.5192-2.5382-0.21451-2.3669 2.1818-2.8859 7.0005-0.83482 7.7518 0.78415 0.28723 0.89704 0.28842 1.8644 0.01976z"/><path d="m138.93 32.529c-1.23-0.4731-2.5487-1.6098-3.0966-2.6694-1.4416-2.7877-0.36384-7.2185 2.4485-10.066 1.4382-1.4562 3.0075-2.3068 5.0365-2.7299 5.8075-1.2109 8.871 3.0264 5.606 7.7541-1.1112 1.609-3.5634 2.8693-6.5756 3.3794-0.69657 0.11796-0.83425 0.23056-0.83425 0.68224 0 1.4083 2.2253 1.5789 4.7447 0.36375 1.7115-0.82544 1.8395-0.84108 2.1491-0.26255 0.35216 0.65803-0.23567 1.8503-1.256 2.5474-2.0819 1.4224-5.914 1.889-8.2225 1.001zm5.2-6.875c2.2101-1.0032 3.6137-2.7132 3.6137-4.4025 0-0.7179-0.12365-1.0071-0.58618-1.3709-1.6909-1.3301-3.8189 0.39147-4.9915 4.0381-0.26456 0.82272-0.42239 1.6486-0.35073 1.8354 0.17795 0.46374 1.1668 0.421 2.3147-0.10007z"/><path d="m162.14 32.315c-0.78646-0.09295-1.2279-0.29664-1.6949-0.78211l-0.63146-0.65644 0.98186-3.2244c1.6432-5.3961 1.7698-7.0974 0.51764-6.9521-1.3954 0.16191-2.488 1.841-3.3421 5.1363-0.52473 2.0244-0.63605 3.5112-0.35626 4.7584 0.17501 0.78015 0.1477 0.84544-0.44953 1.0747-0.88934 0.34144-6.4552 0.16606-7.2543-0.22857-0.33648-0.16618-0.61179-0.42275-0.61179-0.57017 0-0.14741 0.51795-0.60687 1.151-1.021 0.63305-0.41415 1.2235-0.90316 1.312-1.0867 0.0886-0.18354 0.58128-1.9262 1.0949-3.8725 0.84604-3.2059 0.89924-3.5582 0.56558-3.7449-0.81927-0.45849-1.8988-1.5751-1.8988-1.964 0-0.51481 0.5791-0.83175 2.4398-1.3353 0.79937-0.21632 2.004-0.59341 2.677-0.83798 1.5288-0.5556 2.3781-0.42164 2.8648 0.4519 0.28803 0.51692 0.4734 0.62469 0.91716 0.53319 0.30589-0.06308 1.257-0.26688 2.1134-0.45289 2.9587-0.64256 4.7564-0.30814 5.4654 1.0167 0.46283 0.86481 0.09 3.3978-1.0075 6.8448-0.9819 3.0839-1.0905 4.0283-0.4631 4.0283 0.16174 0 0.5181 0.18141 0.79191 0.40313 1.5306 1.2394-1.8789 2.8719-5.1827 2.4815z"/><path d="m172.93 32.138c-3.989-1.4274-5.2064-5.426-3.0465-10.007 1.0034-2.1281 2.7879-3.9309 4.8919-4.9424 1.3342-0.64136 1.8442-0.76076 3.5595-0.83333 1.8479-0.07819 2.0965-0.03626 3.2258 0.54389 2.8138 1.4456 3.0111 4.8975 0.44065 7.71-1.239 1.3557-2.8883 2.2406-5.0015 2.6836-0.80898 0.16957-1.5403 0.37793-1.6252 0.46301-0.0849 0.08508 0.12658 0.39646 0.46989 0.69194 0.87636 0.75428 2.649 0.74622 4.1589-0.01892 1.8348-0.92976 2.5302-0.60557 1.9059 0.88852-0.95125 2.2767-6.0358 3.8737-8.9793 2.8204zm5.587-7.8307c1.326-0.68427 1.9165-1.2836 2.5148-2.5523 0.61597-1.3062 0.65447-1.8352 0.18258-2.5089-0.3831-0.54695-1.4128-0.66044-2.442-0.26913-0.81859 0.31123-2.7902 2.4129-3.3898 3.6134-0.49974 1.0006-0.63746 1.9485-0.32914 2.2652 0.2914 0.29934 2.4979-0.04995 3.4636-0.54828z"/><path d="m178.31 15.402c-0.80581-0.24164-1.1047-0.54787-1.302-1.3339-0.1202-0.47893-0.0136-0.64828 0.69949-1.1111 0.46272-0.30033 0.95507-0.77505 1.0941-1.0549 0.63473-1.2778 2.3991-2.4786 3.6578-2.4895 0.9257-8e-3 1.5512 0.58104 1.5512 1.4609 0 2.7386-3.198 5.2791-5.7006 4.5286z"/></g></g></svg>
