<?xml version="1.0" encoding="UTF-8" standalone="no"?>
<!-- Created with Inkscape (http://www.inkscape.org/) -->

<svg
   width="201.86156mm"
   height="74.61039mm"
   viewBox="0 0 201.86156 74.61039"
   version="1.1"
   id="svg5"
   xml:space="preserve"
   inkscape:version="1.2.2 (b0a8486541, 2022-12-01)"
   sodipodi:docname="ceske_slovo_dark.svg"
   xmlns:inkscape="http://www.inkscape.org/namespaces/inkscape"
   xmlns:sodipodi="http://sodipodi.sourceforge.net/DTD/sodipodi-0.dtd"
   xmlns="http://www.w3.org/2000/svg"
   xmlns:svg="http://www.w3.org/2000/svg"><sodipodi:namedview
     id="namedview7"
     pagecolor="#ffffff"
     bordercolor="#000000"
     borderopacity="0.25"
     inkscape:showpageshadow="2"
     inkscape:pageopacity="0.0"
     inkscape:pagecheckerboard="0"
     inkscape:deskcolor="#d1d1d1"
     inkscape:document-units="mm"
     showgrid="false"
     inkscape:zoom="1.1893044"
     inkscape:cx="333.38816"
     inkscape:cy="277.47312"
     inkscape:window-width="1920"
     inkscape:window-height="1052"
     inkscape:window-x="1920"
     inkscape:window-y="0"
     inkscape:window-maximized="1"
     inkscape:current-layer="layer1" /><defs
     id="defs2" /><g
     inkscape:label="Layer 1"
     inkscape:groupmode="layer"
     id="layer1"
     transform="translate(-5.6115161,-9.3113732)"><path
       style="fill:#000000;stroke-width:0.264583"
       d="m 24.299307,83.642246 c -0.509323,-0.12526 -1.602048,-0.35026 -2.428278,-0.5 -25.4829555,-4.61827 -19.2833034,-43.408513 6.588239,-41.221563 2.245718,0.18983 2.347887,0.0334 0.734831,-1.125 -1.494922,-1.07357 -1.686277,-2.21933 -0.572386,-3.42722 1.023905,-1.11033 2.862944,-0.70622 4.474572,0.98324 1.560478,1.63584 2.208831,1.71832 4.029128,0.51261 1.54632,-1.02424 3.649847,-1.19716 4.268644,-0.35091 1.507993,2.06231 -0.101272,4.62529 -2.912877,4.63917 -1.406538,0.007 -1.694027,0.44276 -0.432647,0.65587 3.525041,0.59556 7.527949,4.23577 6.994591,6.36084 -0.517678,2.06259 -3.131772,2.28594 -4.536382,0.38758 -2.067597,-2.79441 -3.707399,-3.67717 -7.252207,-3.90413 -6.478429,-0.4148 -13.62031,4.55135 -15.520074,10.79195 -4.574595,15.027263 6.309764,26.283523 19.843704,20.521733 2.992609,-1.27405 3.688141,1.11284 0.941708,3.23169 -2.540969,1.96035 -10.573928,3.341 -14.220566,2.44414 z m 70.357114,-0.12218 c -0.0606,-0.0603 -0.64602,-0.16256 -1.30087,-0.22713 -1.1575,-0.11415 -1.53013,-0.21316 -2.910413,-0.77333 -3.52644,-1.43118 -4.552404,-3.35731 -2.748925,-5.16078 1.380593,-1.3806 5.456398,-0.30759 6.728678,1.77141 0.89006,1.45442 2.47435,1.94083 5.28412,1.62233 5.287449,-0.59936 7.246669,-3.22305 10.683689,-14.307083 1.19978,-3.86916 1.24592,-4.24696 0.51868,-4.24696 -2.64902,0 -6.17139,-3.63606 -6.17726,-6.37666 -0.01,-4.63175 6.9743,-6.50866 7.35024,-1.97527 0.12497,1.50694 -0.70455,3.05075 -1.64653,3.06432 -1.2718,0.0183 -0.91271,1.55086 0.52302,2.23215 1.41411,0.67104 1.53798,0.57001 2.33627,-1.90547 0.63902,-1.98159 1.84952,-4.64981 3.71866,-8.19683 0.24771,-0.47005 0.56923,-0.9281 0.71452,-1.01789 0.14528,-0.0898 0.36946,-0.44026 0.49818,-0.77882 0.3006,-0.79062 4.71224,-4.64113 6.61859,-5.77673 3.71199,-2.21122 10.14082,-3.49559 12.99713,-2.59661 0.48807,0.15362 1.40016,0.41146 2.02687,0.573 3.47069,0.89458 5.46173,5.45524 4.12567,9.45025 -1.46067,4.36766 -3.64478,6.62394 -8.96931,9.26569 -0.7276,0.361 -1.3675,0.69802 -1.42198,0.74894 -0.25866,0.24172 -2.20042,7.01902 -2.345,8.18472 -0.3539,2.853333 -0.33709,2.907463 0.91143,2.934813 4.84629,0.10616 0.23306,5.935 -5.5379,6.99715 -4.98613,0.91771 -5.53877,-1.37043 -2.71828,-11.254873 0.24914,-0.87313 0.54943,-1.9865 0.6673,-2.47417 l 0.21432,-0.88666 -1.23494,0.18324 c -0.67922,0.10077 -1.35401,0.20212 -1.49953,0.2252 -0.42944,0.0681 -0.61331,0.45203 -1.35065,2.8201 -1.16484,3.741033 -2.54592,6.979723 -3.66687,8.598963 -0.30222,0.43656 -0.72566,1.14599 -0.94098,1.57651 -1.38865,2.77645 -5.45182,5.60003 -9.65192,6.70729 -3.29681,0.86914 -11.249799,1.5428 -11.796009,0.99919 z m 22.247049,-14.57466 c 0,-0.0728 -0.0595,-0.13229 -0.13229,-0.13229 -0.0728,0 -0.13229,0.0595 -0.13229,0.13229 0,0.0728 0.0595,0.13229 0.13229,0.13229 0.0728,0 0.13229,-0.0595 0.13229,-0.13229 z m 12.43542,-2.381253 c 0,-0.0728 -0.0595,-0.13229 -0.13229,-0.13229 -0.0728,0 -0.1323,0.0595 -0.1323,0.13229 0,0.0728 0.0595,0.13229 0.1323,0.13229 0.0728,0 0.13229,-0.0595 0.13229,-0.13229 z m -4.36257,-7.12798 c 0.7182,-0.30008 0.92392,-0.63471 1.57487,-2.56172 2.41286,-7.14273 5.83101,-11.42345 9.60327,-12.02666 2.7362,-0.43753 4.36805,1.42921 2.44587,2.79792 -1.88524,1.34241 -4.53926,8.08646 -2.82027,7.16649 6.47945,-3.4677 6.75827,-12.74109 0.38239,-12.71788 -5.91127,0.0215 -9.64188,4.09122 -12.12313,13.22504 -0.29648,1.0914 -0.71365,2.43327 -0.92704,2.98191 -0.74788,1.92292 -0.45245,2.10279 1.86404,1.1349 z M 31.046182,76.365776 C 17.984575,73.010446 22.99526,52.408943 36.87295,52.408943 c 11.929504,0 9.838848,16.09485 -2.321039,17.868443 -1.370952,0.19996 -1.494896,0.35488 -0.792498,0.99054 0.723524,0.65478 2.906768,0.82989 4.265347,0.34211 3.134395,-1.12537 4.346493,0.33679 2.181747,2.63184 -1.971432,2.09009 -5.819106,2.98221 -9.160325,2.1239 z m 5.27884,-10.678893 c 2.693603,-1.45165 4.643035,-4.20635 4.643035,-6.56097 0,-4.66505 -4.882944,-2.84615 -7.791619,2.90238 -2.252816,4.45232 -1.008052,5.89871 3.148584,3.65859 z m 12.977409,10.811603 c -4.473656,-1.11573 -7.385388,-5.34138 -5.131392,-7.44693 1.716762,-1.603693 4.469934,-0.3603 4.469934,2.01872 0,1.89427 1.593263,2.6977 2.976563,1.50097 0.977513,-0.84566 -0.11116,-3.38913 -1.972726,-4.608873 -7.624836,-4.99599 -1.31141,-16.25858 7.70124,-13.73833 3.795885,1.06147 6.007746,4.56658 4.091136,6.4832 -1.461905,1.4619 -4.329546,0.7086 -4.329546,-1.13733 0,-2.49645 -2.617269,-3.36122 -3.465269,-1.14495 -0.559158,1.46137 0.04922,2.55483 3.692411,6.63648 5.179308,5.802653 -0.157173,13.401123 -8.032351,11.437043 z m 93.004199,-0.0717 c -5.41012,-0.81627 -7.86871,-5.18426 -6.35841,-11.296553 1.88933,-7.64628 9.31283,-13.0829 15.20773,-11.13741 0.92261,0.30449 1.02808,0.28008 1.74098,-0.40293 1.79495,-1.71967 4.38371,-1.11016 5.20404,1.22525 0.37506,1.06778 0.67599,1.45383 1.43736,1.84391 2.31239,1.18474 0.94644,4.74016 -1.82288,4.74476 -0.46937,8e-4 -0.59531,0.15135 -0.59531,0.71172 0,7.426343 -8.16487,15.314383 -14.81351,14.311253 z m 5.89596,-6.79675 c 2.15338,-0.92304 4.25305,-3.617943 5.10669,-6.554343 l 0.4129,-1.42033 -1.32772,-1.19374 c -0.98523,-0.8858 -1.34892,-1.41294 -1.40988,-2.0435 -0.16201,-1.6758 -3.09871,-0.84416 -4.98816,1.41258 -4.67522,5.58404 -3.2041,12.118453 2.20617,9.799333 z m -88.112281,6.5616 c -1.087766,-0.31431 -1.55652,-1.09437 -0.95675,-1.59213 1.099053,-0.91214 1.717294,-2.49666 2.747309,-7.041213 1.900571,-8.38554 2.155084,-9.44345 2.560691,-10.64383 1.090128,-3.22619 3.081059,-6.58525 5.204359,-8.78071 3.729029,-3.85575 13.652357,-3.20388 12.720727,0.83564 -0.378246,1.64005 -3.029749,1.81381 -4.741661,0.31073 -1.790277,-1.57189 -3.53836,-0.10953 -4.608071,3.85487 -0.822658,3.04882 -0.791168,3.17295 0.561038,2.21149 1.802908,-1.28193 5.461678,-1.79146 7.024598,-0.97827 4.331247,2.25354 2.706528,9.11192 -2.822276,11.91358 -0.746929,0.3785 -1.357553,0.71594 -1.356942,0.74987 5.29e-4,0.0339 0.298265,0.64741 0.661458,1.3633 0.363191,0.715883 0.66035,1.748953 0.66035,2.295703 0,1.14369 0.3977,1.34625 1.816349,0.92514 1.579414,-0.46884 2.223235,1.39161 0.973013,2.81171 -2.932539,3.33099 -7.466489,2.12136 -8.76282,-2.33787 -0.873117,-3.00342 -2.510229,-3.725603 -3.376708,-1.48957 -0.828275,2.13744 -1.063627,2.52809 -2.2915,3.80365 -1.66596,1.73066 -3.906134,2.39674 -6.013164,1.78791 z m 13.79748,-12.242043 c 2.675329,-2.19223 2.666947,-5.45523 -0.01401,-5.45523 -1.780474,0 -3.801555,3.72572 -3.801555,7.00791 0,0.59536 2.372247,-0.36999 3.815567,-1.55268 z m 16.386815,12.209973 c -0.07184,-0.11623 -0.212341,-0.16082 -0.31223,-0.0991 -0.09989,0.0617 -0.831233,-0.006 -1.625211,-0.15013 -10.192255,-1.85251 -6.246505,-19.692413 4.884238,-22.083113 4.36612,-0.93777 7.989469,0.1078 8.983589,2.59235 2.0739,5.18319 -1.9456,11.07584 -8.820429,12.930863 -2.38842,0.64447 -2.69249,1.07678 -1.41807,2.01612 1.22625,0.90383 2.82287,0.96291 5.16855,0.19124 2.7829,-0.91551 3.514259,-0.23016 2.09425,1.96251 -1.06472,1.64406 -8.25923,3.76453 -8.954687,2.63925 z m 1.909337,-9.906703 c 3.65246,-1.24256 6.02785,-3.7242 6.37565,-6.66083 0.70781,-5.97631 -6.2906,-1.23213 -7.82327,5.30334 -0.485,2.06811 -0.526593,2.02911 1.44762,1.35749 z m 96.289319,9.687173 c -4.86741,-1.43299 -6.70878,-7.666733 -4.05909,-13.741513 2.90955,-6.6705 7.48826,-9.36971 12.963,-7.64185 l 1.77508,0.56022 0.78954,-0.5622 c 2.46987,-1.7587 5.86168,-0.33623 5.86168,2.4583 0,0.39961 0.14905,0.68762 0.35587,0.68762 0.51314,0 1.14141,0.80808 1.29496,1.66558 0.24849,1.38766 -2.02215,3.60945 -3.70135,3.62173 -0.32742,0.002 -0.59738,0.0937 -0.59991,0.20279 -0.17632,7.615973 -8.26235,14.638663 -14.67978,12.749323 z m 5.9975,-5.81191 c 2.47573,-0.68763 5.95339,-8.043633 4.23702,-8.962213 -0.26626,-0.1425 -0.62741,-0.73736 -0.80255,-1.32192 -0.38849,-1.29668 -0.4975,-1.37081 -1.72324,-1.1719 -2.98821,0.48492 -6.12744,6.39595 -5.14255,9.6832 0.49433,1.649923 1.67591,2.260403 3.43132,1.772833 z m -29.65951,5.51094 c -1.78522,-0.30475 -2.959,-1.05374 -4.25153,-2.71288 l -1.19062,-1.52833 v -2.29094 c 0,-2.114383 2.37574,-8.347813 3.54055,-9.289643 0.55983,-0.45265 0.26704,-1.74144 -0.4931,-2.1705 -1.08059,-0.60994 -1.16628,-2.66409 -0.15994,-3.83401 l 0.63855,-0.74236 3.92551,-0.0311 c 6.7351,-0.0534 7.09261,0.64804 3.31983,6.51339 -2.98176,4.63561 -3.28868,8.13138 -0.82574,9.405023 2.05605,1.06322 5.71262,-1.748943 6.72458,-5.171683 0.10756,-0.3638 0.28659,-0.78052 0.39785,-0.92604 0.55615,-0.72743 0.56582,-2.48206 0.0178,-3.22427 -0.74031,-1.00256 -0.81762,-3.47072 -0.14106,-4.50329 1.67761,-2.56034 5.00447,-2.53457 6.25942,0.0485 0.3542,0.72906 0.79146,1.21859 1.1743,1.31467 3.21749,0.80754 1.39909,4.93709 -2.3813,5.40792 l -1.30658,0.16273 -0.44487,1.5875 c -2.22331,7.933733 -8.54688,13.053433 -14.80362,11.985323 z m -0.54736,-18.864493 c 0,-0.0728 -0.0595,-0.1323 -0.13229,-0.1323 -0.0728,0 -0.1323,0.0595 -0.1323,0.1323 0,0.0728 0.0595,0.13229 0.1323,0.13229 0.0728,0 0.13229,-0.0595 0.13229,-0.13229 z m -70.445319,-4.10341 c -0.85133,-0.53048 -0.56111,-1.63117 0.80879,-3.06743 0.89353,-0.93682 1.41239,-1.78037 1.74449,-2.83619 0.91236,-2.90066 4.656389,-3.61315 6.341839,-1.20684 2.36263,3.37314 -5.196109,9.41536 -8.895119,7.11046 z M 53.783954,34.708223 c -4.442721,-1.11738 -5.738375,-4.42605 -3.714292,-9.48508 0.980901,-2.45168 1.1502,-3.35249 0.684197,-3.64049 -2.93882,-1.81629 -0.49458,-4.61985 3.443364,-3.94956 1.091406,0.18578 2.330016,0.29411 2.752468,0.24075 2.641351,-0.33366 2.801202,1.15577 0.543417,5.06332 -2.980184,5.15782 -3.035752,7.89621 -0.160229,7.89621 2.507171,0 5.511882,-6.32511 3.758507,-7.9119 -1.167276,-1.05637 -0.869368,-3.65861 0.533175,-4.65731 1.709325,-1.21715 4.55435,-0.79596 4.888468,0.7237 0.284223,1.29272 0.374592,1.45353 0.893032,1.5891 0.278392,0.0728 0.648518,0.47604 0.822505,0.89607 l 0.316336,0.76371 1.225201,-1.36272 c 2.660726,-2.95937 5.653285,-3.93665 8.832529,-2.88445 0.871794,0.28852 1.076812,0.26727 1.719792,-0.17826 2.228675,-1.54431 5.271468,-0.26545 5.043985,2.11994 -0.07702,0.80766 0.02146,1.22666 0.370234,1.57545 0.647472,0.64747 0.67492,0.63024 1.034521,-0.64932 1.940544,-6.90503 4.300127,-9.723441 8.140527,-9.723441 2.68808,0 3.33267,1.290591 1.25324,2.509221 -2.29404,1.34439 -4.1719,5.35416 -1.97407,4.21519 2.48497,-1.28776 4.79439,-0.74093 6.618889,1.56723 l 1.07899,1.36503 -0.1602,1.89517 c -0.63822,7.55009 -7.056219,12.62492 -13.861443,10.9605 -3.061298,-0.74872 -3.929634,-3.76877 -2.388883,-8.30845 0.584993,-1.72364 0.544057,-1.8993 -0.356696,-1.53064 -0.346228,0.14171 -1.060034,0.32716 -1.586238,0.41212 -0.918919,0.14837 -0.968401,0.21257 -1.251931,1.62437 -0.63618,3.16778 -2.681999,6.02415 -5.189646,7.2458 -6.067951,2.9561 -11.272779,-1.32515 -9.573781,-7.87496 0.196966,-0.75932 0.323779,-1.38058 0.281808,-1.38058 -0.04197,0 -0.411483,0.12759 -0.821137,0.28353 -0.409657,0.15595 -1.15847,0.31013 -1.664031,0.34265 -0.905478,0.0582 -0.927653,0.0886 -1.485479,2.03572 -1.710449,5.97035 -5.769562,9.28821 -10.047129,8.21238 z m 40.050517,-5.26334 c 1.9849,-2.28349 3.18497,-8.07835 1.73901,-8.39731 -0.4195,-0.0925 -0.90386,-0.21114 -1.07637,-0.26358 -0.56875,-0.17287 -1.99938,1.0486 -2.33265,1.99162 -2.204394,6.2375 -1.25397,10.03308 1.67001,6.66927 z m -16.671505,-0.42794 c 2.079709,-1.08649 3.886128,-4.64104 2.758543,-5.42807 -0.548595,-0.38291 -1.38262,-1.88622 -1.38262,-2.49214 0,-1.64558 -2.795447,-0.58184 -3.862978,1.46997 -2.124424,4.08317 -0.591595,8.0586 2.487055,6.45024 z m -56.252885,5.40859 c -6.714992,-1.04623 -8.970398,-9.21124 -4.646644,-16.82177 3.424858,-6.028311 7.109809,-8.3220408 12.081244,-7.520061 1.871641,0.30193 2.046139,0.28818 2.755645,-0.2170298 1.74897,-1.24538 5.105231,-0.12919 5.105231,1.6978398 0,0.23956 0.319302,0.36318 0.938067,0.36318 0.646152,0 1.142537,0.20447 1.595125,0.657061 l 0.657056,0.65705 -0.52941,1.03773 c -0.630383,1.23565 -1.492409,1.95922 -3.0368,2.54903 l -1.139151,0.43504 -0.152646,1.63465 c -0.945599,10.12623 -6.64126,16.6158 -13.627717,15.52728 z m 6.586906,-7.69573 c 2.271906,-1.45787 3.626165,-3.99089 4.331727,-8.1021 0.139641,-0.81369 -0.335204,-1.67293 -0.924515,-1.67293 -0.600597,0 -2.060231,-1.65225 -2.222159,-2.5154 -0.723994,-3.859221 -6.579919,2.91592 -7.205225,8.33624 -0.444794,3.85558 2.825975,6.0039 6.020172,3.95419 z m 10.416402,7.40867 c -1.05188,-0.20075 -2.7194,-1.02388 -3.620886,-1.78735 -0.922951,-0.78164 -0.823963,-2.89069 0.166725,-3.55219 1.093136,-0.72991 3.333829,0.22614 3.333829,1.42245 0,1.56337 1.363601,2.48732 2.6275,1.78034 1.492168,-0.83467 1.049121,-1.84388 -1.569167,-3.5744 -3.143581,-2.0777 -3.439583,-2.49617 -3.439583,-4.86274 0,-5.90656 9.609412,-9.2956 12.364918,-4.36085 1.130517,2.02461 0.588237,3.83646 -1.148233,3.83646 -1.133626,0 -1.908072,-0.65782 -2.11151,-1.79354 -0.312042,-1.742 -1.611098,-2.48774 -2.603984,-1.49485 -0.981816,0.98181 -0.240671,2.71825 1.639085,3.84021 4.171148,2.48963 4.954043,6.41683 1.826607,9.16275 -1.397445,1.22698 -4.892387,1.87477 -7.465301,1.38371 z m 67.941921,-0.87165 c -3.98183,-1.07742 -5.12811,-5.68555 -2.74073,-11.01795 1.62713,-3.63431 6.19608,-5.81664 9.96722,-4.76079 1.03311,0.28925 1.24903,0.27623 1.66528,-0.10048 1.44113,-1.3042 5.05682,0.28511 5.06506,2.22641 0.002,0.50697 0.60234,1.8338 0.83079,1.83662 0.25833,0.003 0.48627,-1.06937 0.49026,-2.30694 0.005,-1.44706 0.81767,-2.07333 2.36938,-1.8252 2.26646,0.36242 7.12682,0.47417 9.01082,0.20718 3.97104,-0.56275 4.44987,1.04138 1.30363,4.36728 -0.66572,0.70375 -2.02355,2.29156 -3.0174,3.52849 -0.99384,1.23693 -1.88066,2.30849 -1.9707,2.38125 -0.43092,0.34822 -1.08174,1.63122 -0.94208,1.85719 0.24224,0.39196 1.87069,-0.39246 3.30126,-1.5902 2.25213,-1.88559 3.15253,-1.33858 2.61155,1.58656 -0.50594,2.73564 -0.56502,2.7676 -5.2169,2.82178 -2.13074,0.0248 -4.29079,0.10607 -4.80011,0.18056 -3.75447,0.5491 -5.53502,-0.22995 -4.85194,-2.12289 0.30787,-0.85316 5.09666,-6.37507 6.8977,-7.95367 2.21217,-1.93894 1.54774,-2.31179 -1.12895,-0.63351 -2.0258,1.27017 -3.29285,1.58826 -3.90161,0.9795 -0.38413,-0.38413 -0.52797,-0.36318 -1.66762,0.24277 -0.68598,0.36474 -1.4596,0.66316 -1.71916,0.66316 -0.50081,0 -0.54704,0.10553 -1.0433,2.38125 -1.14133,5.23389 -5.76587,8.33597 -10.51245,7.05163 z m 5.7957,-4.51625 c 2.43495,-1.01738 3.57203,-4.31747 1.97175,-5.72253 -0.74261,-0.65202 -0.95262,-1.03452 -0.95262,-1.73505 0,-1.8684 -2.45415,-0.72355 -3.58835,1.67397 -1.88113,3.97638 -0.50729,7.06906 2.56922,5.78361 z m 28.26001,4.24736 c -8.76743,-2.01557 -4.7766,-15.78731 4.7144,-16.26864 8.76426,-0.44447 7.15132,10.38076 -1.71171,11.48812 -1.46703,0.1833 -1.67082,0.44214 -1.03388,1.31321 0.57072,0.78051 2.53313,0.59262 4.31526,-0.41315 1.75038,-0.98785 2.45838,-0.88033 2.45838,0.37334 0,2.38552 -4.96222,4.37617 -8.74245,3.50712 z m 4.18689,-7.45712 c 2.72476,-1.1351 4.50992,-4.16429 3.18275,-5.40073 -1.65172,-1.53881 -3.64287,-0.0961 -4.9399,3.57919 -0.85617,2.42604 -0.523,2.77142 1.75715,1.82154 z m 29.20035,6.87305 c -8.70214,-2.3411 -4.18771,-16.1413 5.32696,-16.28404 8.20175,-0.12304 6.46818,10.21013 -1.90125,11.3327 -1.37533,0.18447 -1.55335,0.45773 -0.6737,1.0341 1.06489,0.69774 2.80391,0.58453 4.08949,-0.26622 1.36109,-0.90073 2.11579,-0.74919 2.11579,0.42484 0,2.45308 -5.3951,4.71694 -8.95729,3.75862 z m 4.93949,-8.07855 c 3.48859,-1.56735 4.41171,-6.28234 1.06555,-5.44251 -1.93442,0.48551 -5.1661,4.93668 -4.24959,5.85319 0.32951,0.3295 2.02263,0.11112 3.18404,-0.41068 z m -16.78525,8.04746 c -0.30934,-0.0607 -0.83689,-0.4025 -1.17234,-0.75957 l -0.60991,-0.64922 1.23664,-4.03304 c 1.80143,-5.87503 1.59337,-7.24684 -0.8367,-5.51647 -1.23472,0.87919 -3.00998,7.0977 -2.46025,8.61793 0.6459,1.78621 0.18201,2.02068 -4.0246,2.03415 -4.06175,0.013 -5.78861,-1.19589 -3.23337,-2.26353 0.74711,-0.31217 1.73528,-1.41909 1.5039,-1.68463 -0.0341,-0.0392 0.13711,-0.75353 0.3805,-1.5875 0.24339,-0.83398 0.65457,-2.32108 0.91374,-3.30467 l 0.47121,-1.78834 -1.09486,-0.73388 c -1.95343,-1.30938 -1.39866,-2.49654 1.37127,-2.93441 0.73358,-0.11596 1.63127,-0.40577 1.99488,-0.64402 1.59513,-1.04516 3.87336,-0.72018 3.87336,0.55253 0,0.27298 0.17509,0.33876 0.59531,0.22363 7.83732,-2.14713 9.51529,-0.34966 6.81435,7.29964 -1.18443,3.35442 -1.25816,3.86045 -0.59664,4.09505 3.62018,1.28385 -0.78605,3.92798 -5.12649,3.07635 z m 16.39836,-16.99971 c -0.65587,-0.2808 -0.75152,-0.41653 -0.98644,-1.39973 -0.15254,-0.63841 -0.0674,-0.76645 0.73167,-1.10032 0.52048,-0.21747 0.98601,-0.64077 1.0968,-0.997311 0.75599,-2.4327598 5.29759,-3.6114098 5.45209,-1.41494 0.23327,3.316171 -3.39969,6.151551 -6.29412,4.912301 z"
       id="path513" /><path
       style="fill:#a23c2e;fill-opacity:1;stroke-width:0.222469"
       d="m 19.557901,33.938451 c -3.413624,-1.280774 -5.297856,-4.290079 -5.290854,-8.450019 0.0018,-1.074491 0.15272,-2.587487 0.335359,-3.362214 0.710742,-3.014869 3.013091,-6.951207 5.362431,-9.168172 2.600751,-2.454215 4.224216,-3.0168748 8.028713,-2.782592 2.32024,0.142883 2.605328,0.11621 3.527009,-0.3299668 0.790726,-0.382784 1.214578,-0.453647 2.004693,-0.335164 1.113107,0.166923 2.540465,1.2339688 2.540465,1.8991708 0,0.439687 0.423421,0.668163 1.238266,0.668163 0.293958,0 0.854382,0.285846 1.245391,0.635213 l 0.710925,0.635211 -0.597037,1.018768 c -0.683271,1.165913 -1.401472,1.737492 -2.945054,2.343817 l -1.086535,0.426794 -0.269737,2.147813 c -0.87294,6.950906 -3.779057,12.124478 -7.956074,14.163686 -1.370477,0.669062 -1.773997,0.758859 -3.670738,0.816864 -1.616984,0.04945 -2.383358,-0.02952 -3.177223,-0.327372 z m 7.621052,-6.85034 c 1.893859,-0.979353 3.567399,-3.500641 4.341805,-6.541201 0.534445,-2.0984 0.510852,-2.903194 -0.09764,-3.330763 -1.416026,-0.994992 -2.152973,-1.798368 -2.62151,-2.857812 -0.565171,-1.277951 -0.931345,-1.428406 -2.058206,-0.845683 -1.646489,0.851432 -4.168982,4.605272 -5.005238,7.448526 -0.912276,3.101721 0.04362,5.93879 2.202997,6.538447 0.7272,0.201941 2.483054,-0.02122 3.237794,-0.411514 z"
       id="path2861" /><path
       style="fill:#a23c2e;fill-opacity:1;stroke-width:0.222469"
       d="m 36.919081,33.675495 c -1.119328,-0.437729 -2.353464,-1.215194 -2.799967,-1.763879 -0.388072,-0.476888 -0.347353,-2.061015 0.06823,-2.654345 0.441145,-0.629822 1.709044,-0.663858 2.679748,-0.07194 0.509558,0.310722 0.725543,0.639011 0.825447,1.254649 0.277807,1.711918 1.848792,2.426123 3.126258,1.421268 1.121188,-0.881925 0.608759,-1.78162 -2.093018,-3.674806 -0.954201,-0.668626 -2.043181,-1.566786 -2.419956,-1.995908 -0.628449,-0.715762 -0.685043,-0.911628 -0.685043,-2.37076 0,-1.983906 0.48864,-3.074572 2.018659,-4.505727 2.035395,-1.903873 4.976384,-2.756254 7.321214,-2.121895 2.957534,0.800119 4.488725,5.129962 2.00691,5.675059 -1.101209,0.241866 -1.869334,-0.352658 -2.42516,-1.87706 -0.269725,-0.739746 -0.678963,-1.445903 -0.909418,-1.569239 -1.618292,-0.866084 -2.909708,1.073394 -1.817579,2.729683 0.224128,0.339902 1.003501,1.051682 1.731941,1.581729 3.203797,2.331231 4.278061,4.641464 3.218513,6.921492 -0.626917,1.34906 -1.932479,2.457244 -3.5185,2.986567 -1.810295,0.60417 -4.830286,0.620926 -6.32828,0.03511 z"
       id="path2863" /><path
       style="fill:#a23c2e;fill-opacity:1;stroke-width:0.222469"
       d="m 53.185135,34.376495 c -1.650611,-0.629121 -2.62577,-1.36217 -3.266512,-2.45551 -0.930785,-1.588265 -0.839126,-3.397626 0.348086,-6.871222 0.509794,-1.491575 0.926899,-2.802691 0.926899,-2.913586 0,-0.110897 -0.350388,-0.562414 -0.778642,-1.003371 -0.924973,-0.952416 -1.002753,-1.732254 -0.248042,-2.486965 0.862362,-0.862361 2.152023,-1.091496 4.588714,-0.815273 1.163788,0.131926 2.339916,0.181305 2.613617,0.10973 0.636411,-0.166425 1.610768,0.459362 1.610768,1.034526 0,0.606103 -0.567447,1.961505 -1.70298,4.067739 -2.037781,3.779753 -2.588975,6.15352 -1.687399,7.266921 0.606756,0.749311 1.984103,0.840362 2.936057,0.194091 2.437075,-1.654501 3.935077,-5.988812 2.639203,-7.636251 -0.703185,-0.893953 -0.795398,-2.664108 -0.189111,-3.630176 0.60747,-0.967952 2.203157,-1.689941 3.384714,-1.531461 1.289535,0.172961 1.865204,0.652941 2.152756,1.794912 0.168963,0.671007 0.399471,1.047329 0.699929,1.142693 0.246401,0.0782 0.609801,0.460454 0.807556,0.849448 0.197757,0.38899 0.394533,0.746622 0.437282,0.794736 0.04275,0.04811 0.779587,-0.631287 1.637416,-1.509784 2.591171,-2.653593 4.967724,-3.507004 7.829344,-2.811486 l 1.567667,0.381021 1.33147,-0.597527 c 1.653352,-0.741981 2.599188,-0.628242 3.668586,0.441153 0.63682,0.636821 0.738849,0.890172 0.738849,1.834663 0,0.880759 0.108976,1.19819 0.555294,1.617486 0.305414,0.286919 0.598448,0.47852 0.651184,0.42578 0.05274,-0.05274 0.4156,-1.095957 0.806353,-2.318263 0.80406,-2.515145 1.953469,-4.934236 2.937547,-6.182474 1.395716,-1.770375 4.175127,-2.741936 6.058796,-2.117892 1.092092,0.361799 1.243203,0.905384 0.43783,1.574965 -1.915191,1.592281 -2.599364,2.338477 -3.120239,3.403102 -0.319603,0.653249 -0.515964,1.293109 -0.436361,1.421911 0.210833,0.341138 0.928526,0.286898 1.737219,-0.131294 1.825237,-0.943867 4.173739,-0.193054 5.919945,1.892601 1.05249,1.257081 1.13884,1.940936 0.57889,4.584399 -0.52655,2.485736 -1.663357,4.610404 -3.391404,6.33845 -2.426353,2.426354 -5.279342,3.530653 -8.395999,3.249825 -2.80748,-0.252971 -4.1358,-1.266233 -4.605097,-3.512839 -0.247716,-1.185841 -0.03321,-2.744695 0.749965,-5.450255 0.149415,-0.516165 0.205195,-1.004948 0.123957,-1.086186 -0.206161,-0.206163 -2.850346,0.405709 -3.180649,0.73601 -0.149034,0.149037 -0.393716,0.800288 -0.543732,1.447223 -1.026575,4.426998 -4.368572,7.633674 -8.244864,7.91102 -3.451595,0.24696 -5.775113,-1.580594 -6.43528,-5.061651 -0.190669,-1.005395 -0.147466,-1.51848 0.368461,-4.375695 l 0.126463,-0.700354 -1.193392,0.30236 c -0.656365,0.166299 -1.460418,0.356148 -1.786787,0.421889 -0.518618,0.104468 -0.669277,0.350859 -1.195586,1.955279 -1.26012,3.841392 -3.145808,6.455677 -5.529077,7.665413 -1.471181,0.746765 -3.5965,0.890219 -5.039664,0.340169 z m 40.167107,-4.309361 c 1.015616,-0.891723 1.727845,-2.126046 2.357223,-4.085164 0.550325,-1.71304 0.702693,-4.366718 0.27537,-4.795949 -0.142303,-0.142944 -0.703244,-0.309999 -1.246529,-0.371237 -0.904639,-0.101965 -1.055221,-0.04391 -1.788829,0.6897 -1.601184,1.601187 -2.737681,7.690334 -1.674455,8.971444 0.405159,0.488188 1.243523,0.323199 2.07722,-0.408794 z M 77.557387,28.858885 c 1.061736,-0.720513 1.536821,-1.272871 2.228895,-2.591432 0.741018,-1.411812 0.71252,-2.267202 -0.106609,-3.200138 -0.361556,-0.41179 -0.779613,-1.156716 -0.929023,-1.655392 -0.359416,-1.199627 -0.819224,-1.427414 -1.959983,-0.970974 -1.163222,0.465429 -2.076321,1.524085 -2.659949,3.083973 -0.803315,2.147049 -0.514168,5.024231 0.56814,5.653363 0.731099,0.424979 1.964748,0.287136 2.858529,-0.3194 z"
       id="path2865" /><path
       style="fill:#a23c2e;fill-opacity:1;stroke-width:0.222469"
       d="m 106.23199,33.2374 c -3.82789,-0.987313 -5.23032,-5.050387 -3.41652,-9.898213 0.94504,-2.525826 2.38047,-4.076443 4.79837,-5.183391 1.50861,-0.690668 3.97518,-0.932987 5.52486,-0.542774 0.88304,0.222353 1.10903,0.198564 1.84108,-0.193792 1.0897,-0.584043 1.5193,-0.564618 2.91701,0.13189 1.14445,0.570304 1.81634,1.400437 1.8181,2.246289 0.001,0.621633 0.88282,1.941631 1.13095,1.693492 0.11678,-0.116779 0.27626,-0.896946 0.3544,-1.733701 0.21582,-2.311178 0.35203,-2.391577 3.69214,-2.17936 2.83532,0.180147 4.74412,0.200221 7.9739,0.08386 3.75386,-0.135242 3.81626,0.792863 0.32012,4.760764 -4.083,4.633931 -5.79423,6.973623 -5.39353,7.374326 0.29906,0.299061 1.85392,-0.386463 3.2671,-1.440439 1.73427,-1.293447 2.10792,-1.448335 2.4627,-1.020847 0.40715,0.490582 0.11352,3.373048 -0.41583,4.08205 -0.54961,0.73615 -1.05614,0.856117 -3.72653,0.882602 -1.22971,0.0122 -3.55159,0.127683 -5.15972,0.256635 -3.30448,0.264978 -4.51153,0.08179 -5.06921,-0.769337 -0.24993,-0.381442 -0.28322,-0.664167 -0.12669,-1.075886 0.29315,-0.77104 3.18428,-4.205724 5.94858,-7.066941 1.2676,-1.31205 2.30473,-2.510054 2.30473,-2.662229 0,-0.425474 -1.01445,-0.09451 -2.72794,0.889997 -2.0039,1.151361 -2.80421,1.361967 -3.59702,0.946571 -0.56997,-0.298638 -0.72189,-0.278577 -1.90252,0.251261 -0.7057,0.316699 -1.44791,0.575816 -1.64936,0.575816 -0.4311,0 -0.66276,0.491598 -1.14574,2.431274 -1.06179,4.264245 -4.12676,7.092694 -7.87734,7.269454 -0.80079,0.03774 -1.76653,-0.01148 -2.14609,-0.109374 z m 5.07695,-4.261889 c 1.77805,-0.493813 3.06586,-2.252642 3.06586,-4.187209 0,-0.931495 -0.11937,-1.243041 -0.77864,-2.032132 -0.42825,-0.512585 -0.77864,-1.114536 -0.77864,-1.337667 0,-1.42426 -1.1228,-1.519153 -2.53817,-0.214511 -2.36692,2.181759 -2.88588,7.000478 -0.83482,7.75176 0.78415,0.287229 0.89704,0.288424 1.86441,0.01976 z"
       id="path2867" /><path
       style="fill:#a23c2e;fill-opacity:1;stroke-width:0.222469"
       d="m 138.93142,32.528637 c -1.23002,-0.473101 -2.54869,-1.609841 -3.09659,-2.669365 -1.44158,-2.787711 -0.36384,-7.218492 2.44848,-10.066121 1.43817,-1.45624 3.00746,-2.306822 5.0365,-2.729888 5.80749,-1.210898 8.87099,3.026428 5.60605,7.75409 -1.1112,1.60903 -3.56345,2.869327 -6.57559,3.379423 -0.69657,0.117964 -0.83425,0.230558 -0.83425,0.682241 0,1.408258 2.22526,1.578856 4.7447,0.363749 1.7115,-0.825442 1.83949,-0.841076 2.14912,-0.262546 0.35216,0.65803 -0.23567,1.85029 -1.25595,2.547369 -2.08194,1.422426 -5.91399,1.888963 -8.22247,1.001048 z m 5.20002,-6.875012 c 2.21012,-1.003189 3.61371,-2.713162 3.61371,-4.402519 0,-0.717896 -0.12365,-1.007057 -0.58618,-1.370885 -1.6909,-1.330064 -3.8189,0.391469 -4.99153,4.038102 -0.26456,0.822722 -0.42239,1.64864 -0.35073,1.83537 0.17795,0.463745 1.16677,0.420999 2.31473,-0.100068 z"
       id="path2869" /><path
       style="fill:#a23c2e;fill-opacity:1;stroke-width:0.222469"
       d="m 162.14332,32.314838 c -0.78646,-0.09295 -1.22787,-0.296635 -1.69489,-0.782114 l -0.63146,-0.656436 0.98186,-3.224371 c 1.64317,-5.396077 1.76985,-7.097353 0.51764,-6.95206 -1.39538,0.161907 -2.48795,1.841011 -3.34214,5.13633 -0.52473,2.024354 -0.63605,3.511169 -0.35626,4.758367 0.17501,0.780148 0.1477,0.845445 -0.44953,1.074732 -0.88934,0.341435 -6.45525,0.166061 -7.25432,-0.228573 -0.33648,-0.166177 -0.61179,-0.422754 -0.61179,-0.570169 0,-0.147413 0.51795,-0.606872 1.151,-1.021017 0.63305,-0.414147 1.22346,-0.903158 1.31203,-1.086696 0.0886,-0.183537 0.58128,-1.926154 1.09492,-3.872484 0.84604,-3.205941 0.89924,-3.558167 0.56558,-3.744894 -0.81927,-0.458489 -1.89884,-1.575105 -1.89884,-1.964005 0,-0.514813 0.5791,-0.831752 2.43981,-1.335289 0.79937,-0.216323 2.00401,-0.593412 2.67698,-0.83798 1.52883,-0.555601 2.3781,-0.421637 2.86481,0.451903 0.28803,0.516924 0.4734,0.624689 0.91716,0.533186 0.30589,-0.06308 1.25695,-0.266877 2.11345,-0.45289 2.95868,-0.642559 4.75635,-0.308137 5.4654,1.016733 0.46283,0.864814 0.09,3.397821 -1.00751,6.844784 -0.9819,3.083917 -1.09048,4.028344 -0.4631,4.028344 0.16174,0 0.5181,0.181409 0.79191,0.40313 1.53065,1.239449 -1.87887,2.87192 -5.18271,2.481469 z"
       id="path2871" /><path
       style="fill:#a23c2e;fill-opacity:1;stroke-width:0.222469"
       d="m 172.92974,32.138043 c -3.98901,-1.427421 -5.20636,-5.426011 -3.04651,-10.006673 1.00342,-2.128055 2.78789,-3.930947 4.8919,-4.942388 1.33416,-0.641358 1.84415,-0.760756 3.5595,-0.833334 1.84789,-0.07819 2.09654,-0.03626 3.2258,0.543893 2.81381,1.44558 3.01109,4.89748 0.44065,7.709958 -1.23902,1.355686 -2.88834,2.240635 -5.00153,2.683598 -0.80898,0.169574 -1.54031,0.37793 -1.62518,0.463013 -0.0849,0.08508 0.12658,0.396459 0.46989,0.691943 0.87636,0.754285 2.64895,0.746218 4.15889,-0.01892 1.83478,-0.929756 2.53016,-0.605573 1.90589,0.888519 -0.95125,2.276663 -6.03577,3.873709 -8.9793,2.820397 z m 5.58702,-7.830695 c 1.32598,-0.684271 1.91647,-1.283571 2.51477,-2.55229 0.61597,-1.306206 0.65447,-1.835176 0.18258,-2.50889 -0.3831,-0.546952 -1.4128,-0.660437 -2.442,-0.269134 -0.81859,0.311226 -2.79022,2.412931 -3.38976,3.613388 -0.49974,1.000635 -0.63746,1.948481 -0.32914,2.265211 0.2914,0.299342 2.49788,-0.04995 3.46355,-0.548285 z"
       id="path2873" /><path
       style="fill:#a23c2e;fill-opacity:1;stroke-width:0.222469"
       d="m 178.30699,15.402431 c -0.80581,-0.241644 -1.1047,-0.547868 -1.30199,-1.333921 -0.1202,-0.478933 -0.0136,-0.648279 0.69949,-1.111102 0.46272,-0.300326 0.95507,-0.775049 1.0941,-1.054942 0.63473,-1.277784 2.39908,-2.4786108 3.65783,-2.4895488 0.9257,-0.008 1.55117,0.581035 1.55117,1.4609198 0,2.738608 -3.19795,5.279082 -5.7006,4.528594 z"
       id="path2875" /><path
       style="fill:#ffffff;fill-opacity:1;stroke-width:0.840828"
       d="M 62.121054,278.79786 C 48.665126,275.70137 40.095527,272.26512 31.399938,266.47927 16.49636,256.56278 5.9617303,240.53506 2.1187376,221.92994 c -1.88564849,-9.129 -1.75514196,-24.6663 0.2893114,-34.44361 5.6469014,-27.0055 23.24072,-49.04708 46.623445,-58.40998 11.146724,-4.46336 16.527104,-5.39646 31.057338,-5.38616 9.669063,0.007 13.243035,-0.26014 13.243035,-0.98932 0,-0.54928 -1.701608,-2.39304 -3.781345,-4.09723 -4.531573,-3.71328 -5.434361,-6.40477 -3.409505,-10.1647 3.292655,-6.1141 9.08526,-5.53695 17.212653,1.71499 6.27672,5.6006 8.63192,5.88676 16.16835,1.96448 6.60333,-3.43666 12.45633,-4.10365 14.8659,-1.69408 5.56969,5.56969 0.90412,15.42944 -7.86308,16.61706 -8.69597,1.17798 -9.31353,2.42799 -2.11026,4.27144 11.72574,3.00083 24.41191,14.52501 24.41191,22.17588 0,2.75638 -4.44354,6.68895 -7.55805,6.68895 -3.7901,0 -5.32185,-1.04197 -12.95115,-8.81003 -8.92321,-9.08551 -11.71393,-10.12593 -26.99756,-10.06505 -10.411263,0.0415 -11.291794,0.18253 -18.527276,2.96811 -19.186459,7.38657 -33.116795,22.04839 -38.127289,40.12937 -9.066986,32.71932 1.754445,64.06709 26.140291,75.72381 9.458868,4.52145 14.373578,5.45048 26.404072,4.99118 8.752342,-0.33414 11.110682,-0.766 18.955412,-3.47108 9.66358,-3.33229 11.59679,-3.63804 13.15435,-2.08048 1.96637,1.96637 1.04825,4.90688 -2.82497,9.04766 -6.91011,7.38746 -21.43298,11.67343 -41.570729,12.26828 -11.193153,0.33064 -13.061285,0.1601 -22.802537,-2.08157 z"
       id="path3004"
       transform="matrix(0.26458333,0,0,0.26458333,5.6115161,9.3113732)" /><path
       style="fill:#ffffff;fill-opacity:1;stroke-width:0.840828"
       d="m 96.695177,253.01219 c -11.278354,-2.99362 -20.08925,-9.80085 -24.564403,-18.97828 -2.995236,-6.14249 -3.978163,-10.66952 -4.003181,-18.43733 -0.06939,-21.54296 13.744835,-41.67604 34.032967,-49.60024 4.33428,-1.69289 6.52555,-1.97032 15.55531,-1.96939 12.12192,0.001 15.76115,1.1606 22.16121,7.05997 14.07883,12.97741 8.14601,38.96681 -11.83955,51.86453 -4.3602,2.81385 -14.52404,6.47415 -20.67422,7.44539 -6.89774,1.08929 -0.56845,6.29242 7.65727,6.29483 2.44846,7.2e-4 6.8916,-0.61156 9.87364,-1.36063 5.01456,-1.25961 5.58026,-1.25816 7.53004,0.0194 1.15949,0.75973 2.10816,1.76976 2.10816,2.24452 0,3.08553 -6.44491,10.21717 -11.67967,12.92416 -3.67979,1.9029 -12.47496,3.81303 -17.32888,3.7635 -2.31228,-0.0236 -6.285189,-0.59529 -8.828693,-1.27041 z m 17.513143,-38.58856 c 11.52655,-5.52395 19.48327,-16.08675 19.48327,-25.86467 0,-10.48746 -4.96099,-13.40871 -13.98329,-8.23397 -5.93649,3.40487 -11.41369,9.95839 -15.94699,19.0807 -4.077018,8.20413 -5.110521,13.9777 -2.96489,16.56303 1.85072,2.22997 6.7005,1.67127 13.4119,-1.54509 z"
       id="path3006"
       transform="matrix(0.26458333,0,0,0.26458333,5.6115161,9.3113732)" /><path
       style="fill:#ffffff;fill-opacity:1;stroke-width:0.840828"
       d="m 163.53,252.87687 c -9.97308,-3.5408 -17.78344,-10.42671 -19.73578,-17.39979 -0.93373,-3.33496 -0.87302,-4.06528 0.54239,-6.52487 0.87659,-1.52327 3.02567,-3.47412 4.77574,-4.33524 2.85697,-1.40575 3.49728,-1.44564 6.26943,-0.39055 3.61553,1.37608 6.89795,5.78694 6.89795,9.26935 0,3.25518 2.09946,7.15376 4.21381,7.82483 2.73365,0.86763 6.66164,-0.39824 8.11406,-2.6149 2.88308,-4.40015 -0.81103,-12.07611 -8.66575,-18.00648 -11.51092,-8.69083 -14.87679,-20.96464 -9.09864,-33.17864 3.29857,-6.97262 8.06447,-11.75272 15.2668,-15.31231 5.90253,-2.91719 6.87566,-3.13807 13.60853,-3.0889 9.62511,0.0703 15.58632,2.3323 21.59523,8.19438 5.26255,5.13397 6.81984,9.31685 5.04771,13.55816 -1.57369,3.76636 -4.33802,5.46484 -8.85808,5.44264 -5.20749,-0.0256 -7.55509,-1.99261 -8.51587,-7.1354 -1.31178,-7.02164 -4.41711,-9.77341 -9.56974,-8.48018 -4.12435,1.03514 -6.01234,8.85955 -3.37049,13.96833 0.69815,1.35007 4.68097,6.52951 8.85072,11.50986 9.95138,11.88595 11.3275,14.73227 11.29821,23.36878 -0.018,5.30483 -0.41908,7.47723 -1.89756,10.27781 -2.65954,5.03777 -7.27002,9.34842 -12.72139,11.89408 -6.1821,2.8869 -17.62689,3.43852 -24.04728,1.15904 z"
       id="path3008"
       transform="matrix(0.26458333,0,0,0.26458333,5.6115161,9.3113732)" /><path
       style="fill:#ffffff;fill-opacity:1;stroke-width:0.840828"
       d="m 208.10484,252.74672 c -3.39607,-0.84391 -6.30621,-2.4684 -6.30621,-3.52021 0,-0.47331 1.12335,-2.25841 2.49632,-3.96689 3.39573,-4.22553 5.19957,-9.85619 10.55607,-32.95064 6.8852,-29.68543 7.70145,-32.49606 12.13296,-41.77779 9.61326,-20.13479 18.12793,-28.48357 32.49797,-31.8648 6.99563,-1.64605 17.5482,-1.22505 22.82906,0.91077 4.97838,2.01349 8.07194,5.84278 7.42607,9.19217 -1.21465,6.29901 -9.52491,7.45986 -16.52908,2.30894 -8.96944,-6.5962 -15.29674,-0.7161 -19.90907,18.50196 -0.7519,3.13289 -1.09717,5.96607 -0.76728,6.29596 0.32988,0.32989 2.9551,-0.59216 5.8338,-2.04901 6.9229,-3.50352 12.0461,-4.67119 18.65007,-4.25068 4.50138,0.28663 5.97925,0.78283 8.56521,2.87583 12.67543,10.25907 5.92818,32.27385 -12.94237,42.22811 -2.89035,1.52467 -5.25517,3.08258 -5.25517,3.46203 0,0.37945 0.97894,2.82821 2.17543,5.44169 1.19649,2.61348 2.43924,6.53752 2.76165,8.72009 l 0.58622,3.96831 4.90957,-0.22704 c 5.56958,-0.25756 7.22451,0.65629 7.22451,3.98938 0,5.73803 -9.02002,12.6338 -16.52566,12.6338 -7.69193,0 -14.84984,-6.24451 -17.99641,-15.69995 -2.40293,-7.22082 -5.22572,-10.53695 -8.68286,-10.20038 -2.38623,0.23231 -2.92927,0.89609 -6.08199,7.43424 -6.55809,13.60026 -17.63824,21.03174 -27.64881,18.54411 z m 44.00534,-41.87906 c 8.59327,-4.3478 13.59135,-10.88531 13.59135,-17.77756 0,-4.41065 -2.0909,-6.83614 -6.39024,-7.4128 -2.96868,-0.39818 -3.822,-0.11604 -6.34268,2.09715 -1.60189,1.40647 -3.95012,4.46364 -5.2183,6.7937 -2.07332,3.80938 -4.69865,13.2931 -4.73652,17.11021 -0.0219,2.20908 3.80137,1.86834 9.09639,-0.8107 z"
       id="path3010"
       transform="matrix(0.26458333,0,0,0.26458333,5.6115161,9.3113732)" /><path
       style="fill:#ffffff;fill-opacity:1;stroke-width:0.840828"
       d="m 321.19615,252.6687 c -0.69368,-0.44829 -2.45109,-0.82087 -3.90536,-0.82795 -4.75903,-0.0232 -13.24806,-3.20391 -16.90497,-6.3341 -12.57256,-10.76164 -12.47816,-34.65677 0.2142,-54.21836 10.00078,-15.4133 24.47541,-23.54318 41.91686,-23.54318 13.08194,0 20.97721,4.84863 23.2375,14.27055 4.25256,17.72667 -9.68966,36.59023 -32.36622,43.79088 -11.41746,3.62547 -12.58835,5.01175 -7.5068,8.88764 4.26118,3.25016 10.0972,3.58739 19.61544,1.13348 8.04478,-2.07404 10.17329,-1.8753 10.17329,0.94989 0,5.71635 -8.75693,11.65163 -22.20623,15.05096 -7.34953,1.85759 -10.37297,2.06466 -12.26771,0.84019 z m 7.15313,-37.38866 c 14.88368,-5.60221 23.05819,-15.33636 23.0982,-27.50521 0.0212,-6.43918 -1.12923,-8.25813 -5.22289,-8.25813 -8.40541,0 -20.70677,14.70401 -24.62023,29.42897 -1.58023,5.94582 -1.58227,8.40827 -0.007,8.40827 0.68312,0 3.72148,-0.93326 6.7519,-2.0739 z"
       id="path3012"
       transform="matrix(0.26458333,0,0,0.26458333,5.6115161,9.3113732)" /><path
       style="fill:#ffffff;fill-opacity:1;stroke-width:0.840828"
       d="m 334.43919,163.9481 c -3.78323,-2.12971 -2.93505,-5.60093 2.89068,-11.83023 1.33448,-1.42692 4.0205,-5.74486 5.96893,-9.59541 3.92851,-7.76364 7.17343,-10.32142 13.09424,-10.32142 6.04319,0 11.90592,5.09771 11.86785,10.31924 -0.0442,6.06341 -7.93722,15.49451 -16.53604,19.75835 -5.92183,2.93642 -13.70047,3.68769 -17.28566,1.66947 z"
       id="path3014"
       transform="matrix(0.26458333,0,0,0.26458333,5.6115161,9.3113732)" /><path
       style="fill:#ffffff;fill-opacity:1;stroke-width:0.840828"
       d="m 330.64721,279.1185 c -7.46312,-1.36391 -17.77138,-6.18462 -20.72133,-9.69045 -3.01375,-3.58163 -2.91723,-7.50339 0.27245,-11.07049 2.29491,-2.56646 2.80332,-2.7429 7.77765,-2.69909 6.85931,0.0604 12.61104,2.92548 17.4316,8.68311 4.5455,5.42909 7.24742,6.29836 18.07041,5.81363 15.47283,-0.69298 23.446,-6.31937 31.09744,-21.9444 4.0973,-8.3671 14.54823,-38.73634 15.34894,-44.60231 l 0.47659,-3.49152 -4.28597,-1.00949 c -11.23898,-2.64716 -22.06976,-15.86295 -20.77918,-25.35488 1.52538,-11.21886 15.91699,-18.66033 23.31125,-12.05356 2.13309,1.90592 2.71311,3.16465 3.00272,6.51641 0.40258,4.65915 -1.49419,9.33292 -4.35873,10.74025 -0.92491,0.4544 -2.24921,1.09085 -2.94289,1.41433 -2.26698,1.05715 -1.86579,3.33483 1.11188,6.3125 2.22828,2.22828 3.62689,2.92409 5.87757,2.92409 2.89507,0 2.99877,-0.12053 5.24537,-6.096 5.4954,-14.61661 13.96311,-32.09832 18.88048,-38.979 3.2442,-4.5395 12.18391,-12.85224 20.26625,-18.84493 11.29642,-8.37578 25.97312,-13.33517 41.58012,-14.0503 8.33219,-0.38179 10.0433,-0.19918 16.45288,1.75587 9.32168,2.84328 13.08492,5.63827 16.68492,12.39202 5.44869,10.22195 4.38387,22.59736 -3.00454,34.91916 -5.30822,8.85262 -12.41035,14.86254 -26.57617,22.48913 -4.0279,2.16854 -7.56566,4.3347 -7.86169,4.81368 -1.33629,2.16218 -7.93062,26.57745 -8.72935,32.32018 -1.11298,8.00198 -0.43375,9.63992 3.99754,9.63992 6.87053,0 8.81588,4.64841 4.46116,10.65993 -8.17324,11.28284 -31.50641,19.40972 -38.48729,13.40502 -2.03771,-1.75277 -2.3663,-2.71658 -2.65161,-7.77765 -0.39754,-7.05162 0.42804,-11.71007 5.39246,-30.42807 2.12406,-8.00865 3.67507,-14.74805 3.44668,-14.97645 -0.55563,-0.55562 -10.21585,0.56216 -11.44996,1.32489 -0.53563,0.33103 -2.9867,6.43595 -5.44682,13.56648 -5.45664,15.81579 -8.22999,21.98544 -14.4215,32.08247 -5.56055,9.06805 -8.93832,12.84621 -16.0689,17.97366 -10.16525,7.30961 -21.18169,11.0855 -38.83621,13.31115 -12.29745,1.55029 -25.11747,1.55439 -33.56422,0.0107 z m 90.18702,-53.35628 c 0.28581,-0.46246 0.11896,-0.84083 -0.37079,-0.84083 -0.48975,0 -0.89045,0.37837 -0.89045,0.84083 0,0.46245 0.16685,0.84083 0.37079,0.84083 0.20393,0 0.60463,-0.37838 0.89045,-0.84083 z m 47.50676,-9.24911 c 0,-0.46245 -0.37837,-0.84082 -0.84083,-0.84082 -0.46245,0 -0.84083,0.37837 -0.84083,0.84082 0,0.46246 0.37838,0.84083 0.84083,0.84083 0.46246,0 0.84083,-0.37837 0.84083,-0.84083 z m -18.50251,-26.14397 c 4.46797,-1.92207 5.01232,-2.74536 8.75248,-13.23762 5.25793,-14.75005 12.91168,-27.74767 20.40873,-34.65822 7.64016,-7.04245 18.57379,-9.87688 23.60974,-6.12056 1.26916,0.94667 2.43168,2.3525 2.58338,3.12408 0.15242,0.77524 -1.54037,3.39714 -3.78373,5.86047 -4.53261,4.97707 -9.87765,15.12002 -11.36627,21.56907 -1.74458,7.55795 1.20148,7.62343 9.45749,0.21023 7.49031,-6.72566 11.7229,-15.90532 11.7229,-25.42465 0,-9.2938 -5.75685,-16.50457 -14.37941,-18.01099 -4.93127,-0.86153 -14.96362,0.95338 -20.67011,3.73935 -10.18661,4.97321 -19.74662,18.11357 -25.36128,34.85943 -5.15029,15.36086 -8.6328,27.5463 -8.19705,28.68183 0.61918,1.61356 2.44287,1.46399 7.22313,-0.59242 z"
       id="path3016"
       transform="matrix(0.26458333,0,0,0.26458333,5.6115161,9.3113732)" /><path
       style="fill:#ffffff;fill-opacity:1;stroke-width:0.840828"
       d="m 513.52241,252.59467 c -18.41347,-4.33817 -26.46693,-22.96561 -19.41668,-44.91025 4.71332,-14.67066 16.75189,-29.30642 28.90703,-35.14339 10.29734,-4.94484 16.69897,-5.82487 25.56789,-3.51482 4.57022,1.1904 5.06648,1.17551 7.00863,-0.2102 5.33438,-3.80607 6.73487,-4.42565 10.013,-4.42978 4.56366,-0.006 8.15519,2.95831 10.78223,8.8985 1.34371,3.03838 2.78619,4.85944 4.58674,5.79054 1.44461,0.74704 3.23191,2.62765 3.97176,4.17915 1.2688,2.66068 1.24443,3.02862 -0.42899,6.47841 -1.99325,4.10912 -4.24574,5.84238 -8.5178,6.5543 -3.18179,0.53023 -2.86225,-0.21821 -5.04538,11.81771 -2.06439,11.38127 -10.93448,25.20703 -21.61925,33.69783 -12.38341,9.84064 -24.4332,13.47214 -35.80918,10.792 z m 26.70934,-24.74833 c 7.34221,-3.47834 15.13739,-13.97083 18.55897,-24.98078 l 1.49757,-4.81886 -5.19351,-5.4085 c -2.85643,-2.97467 -5.19351,-6.12232 -5.19351,-6.99477 0,-7.03651 -13.03271,-3.26977 -20.29504,5.86571 -10.92079,13.73755 -13.15062,31.53297 -4.62285,36.89311 3.27635,2.05935 10.26586,1.80454 15.24837,-0.55591 z"
       id="path3018"
       transform="matrix(0.26458333,0,0,0.26458333,5.6115161,9.3113732)" /><path
       style="fill:#ffffff;fill-opacity:1;stroke-width:0.840828"
       d="m 600.3,249.83949 c -5.77576,-1.55752 -9.09581,-3.83653 -13.99927,-9.60965 l -4.44801,-5.23688 v -6.82116 c 0,-5.5395 0.54442,-8.44812 2.89747,-15.48011 2.97617,-8.89417 6.91948,-17.44251 9.91541,-21.49471 2.06835,-2.7976 1.52479,-5.89595 -1.53121,-8.72816 -2.91949,-2.70569 -3.75768,-6.15466 -2.43251,-10.00932 2.1888,-6.36678 2.27405,-6.39604 18.63506,-6.39604 19.83611,0 22.81594,1.33175 20.11414,8.98947 -0.65668,1.86124 -3.26536,6.74858 -5.79707,10.86075 -10.61902,17.24814 -13.48859,26.81029 -10.32085,34.39175 1.47703,3.53504 5.74798,6.29024 9.75731,6.29447 3.93969,0.004 11.08781,-4.35894 15.25153,-9.3093 3.91177,-4.6508 9.09527,-16.72265 9.09527,-21.18197 0,-1.77702 -0.79657,-4.97955 -1.77017,-7.11672 -1.37663,-3.02189 -1.69489,-5.06796 -1.43158,-9.20329 0.30606,-4.80657 0.64326,-5.62952 3.50934,-8.56465 6.93319,-7.10023 15.36098,-6.16153 20.56135,2.29015 1.61778,2.62922 3.69112,4.68266 5.74418,5.68903 1.76695,0.86614 3.75376,2.55524 4.41512,3.75356 1.08593,1.96758 1.01812,2.55962 -0.69957,6.10789 -2.27132,4.69192 -7.17195,7.91551 -14.16228,9.31582 l -4.66213,0.93392 -2.22888,7.12794 c -7.08589,22.66061 -22.39791,38.99028 -40.5801,43.2771 -6.29074,1.48317 -10.65508,1.51627 -15.83255,0.12011 z m 0.0509,-70.32279 c 0,-0.46246 -0.37837,-0.84083 -0.84083,-0.84083 -0.46246,0 -0.84083,0.37837 -0.84083,0.84083 0,0.46245 0.37837,0.84083 0.84083,0.84083 0.46246,0 0.84083,-0.37838 0.84083,-0.84083 z"
       id="path3020"
       transform="matrix(0.26458333,0,0,0.26458333,5.6115161,9.3113732)" /><path
       style="fill:#ffffff;fill-opacity:1;stroke-width:0.840828"
       d="m 694.10321,252.10022 c -13.67864,-3.03733 -22.28193,-15.06976 -22.28193,-31.16314 0,-16.68114 11.03614,-37.81163 24.11969,-46.18108 8.81082,-5.63621 17.96557,-6.49778 29.89421,-2.8134 l 5.63983,1.74197 3.3257,-2.20085 c 4.00472,-2.6502 8.90916,-3.44516 12.9754,-2.10318 3.98975,1.31674 8.12793,6.086 8.12793,9.36746 0,1.85042 0.84113,3.30666 3.11106,5.3862 2.43653,2.23216 3.11106,3.47956 3.11106,5.75329 0,5.2719 -6.5309,11.21205 -13.99978,12.73342 -2.05188,0.41796 -2.31227,0.84435 -2.31227,3.78626 0,7.57382 -5.44626,19.94866 -12.48949,28.37827 -10.1016,12.09 -27.72121,19.86839 -39.22141,17.31478 z m 21.93933,-22.88496 c 4.99277,-3.04455 11.68375,-13.20131 14.57328,-22.12191 1.60416,-4.9524 1.35746,-9.74628 -0.61039,-11.86091 -0.94283,-1.01315 -2.35313,-3.45017 -3.134,-5.4156 -1.3551,-3.41073 -1.58049,-3.57352 -4.94759,-3.57352 -11.84532,0 -25.31277,22.90975 -21.58861,36.72483 1.89256,7.02059 9.48615,10.04072 15.70731,6.24711 z"
       id="path3022"
       transform="matrix(0.26458333,0,0,0.26458333,5.6115161,9.3113732)" /></g></svg>
